<?xml version="1.0" standalone="no"?>
<!DOCTYPE svg PUBLIC "-//W3C//DTD SVG 20010904//EN"
 "http://www.w3.org/TR/2001/REC-SVG-20010904/DTD/svg10.dtd">
<svg version="1.0" xmlns="http://www.w3.org/2000/svg"
 width="768.000000pt" height="768.000000pt" viewBox="0 0 768.000000 768.000000"
 preserveAspectRatio="xMidYMid meet">
<metadata>
Created by potrace 1.14, written by Peter Selinger 2001-2017
</metadata>
<g transform="translate(0.000000,768.000000) scale(0.100000,-0.100000)"
fill="#000000" stroke="none">
<path d="M3070 6720 l0 -190 -190 0 -190 0 -2 -192 -3 -193 -193 -3 -192 -2 2
-552 c1 -303 3 -561 6 -574 l4 -24 379 0 379 0 2 193 3 192 186 3 187 2 5 26
c2 13 4 99 3 189 l-2 165 1343 0 1343 0 0 385 0 385 -190 0 -190 0 0 190 0
190 -1345 0 -1345 0 0 -190z"/>
<path d="M2690 4225 l0 -385 190 0 190 0 0 385 0 385 -190 0 -190 0 0 -385z"/>
<path d="M3840 4418 l0 -193 373 1 c204 1 378 2 385 3 9 1 12 46 12 191 l0
190 -385 0 -385 0 0 -192z"/>
<path d="M5760 4418 l0 -193 373 2 c204 1 378 2 385 3 9 0 12 45 12 190 l0
190 -385 0 -385 0 0 -192z"/>
<path d="M1920 2880 l0 -190 -192 -2 -193 -3 0 -190 0 -190 193 -3 192 -2 0
-190 0 -190 -195 0 -195 0 0 -190 0 -190 -190 0 -189 0 -4 -177 c-3 -98 -5
-194 -5 -213 -1 -41 27 -73 187 -212 361 -313 817 -576 1255 -724 55 -19 101
-34 103 -34 2 0 3 306 3 680 l0 680 190 0 190 0 0 -729 c0 -686 1 -730 18
-735 39 -12 273 -47 351 -52 66 -4 82 -2 78 8 -2 7 -13 13 -25 12 -12 0 -18 4
-15 13 3 7 10 10 16 6 6 -4 7 -1 2 7 -9 15 11 30 43 30 12 0 22 4 22 8 0 5 -8
8 -17 7 -31 -3 -63 -16 -63 -26 0 -5 -5 -9 -11 -9 -8 0 -8 4 0 13 7 10 7 17 0
24 -8 8 -8 13 0 17 6 4 11 0 11 -8 0 -21 19 -21 27 0 3 8 11 13 18 10 19 -7
25 16 10 43 -9 18 -13 20 -18 8 -6 -16 -57 -20 -57 -4 0 6 3 8 6 4 7 -6 34 17
34 28 0 4 -7 5 -15 1 -8 -3 -15 -2 -15 3 0 5 9 11 21 14 13 4 18 10 14 17 -6
9 -9 9 -15 0 -5 -9 -9 -9 -14 -1 -4 6 -1 11 6 11 8 0 9 3 3 8 -14 10 -17 32
-5 32 20 0 25 -5 21 -25 -2 -16 0 -18 10 -7 16 15 29 16 29 2 0 -5 -7 -10 -16
-10 -8 0 -12 -5 -9 -10 8 -13 25 -3 34 22 7 19 8 19 36 -4 17 -12 24 -15 18
-7 -7 9 -9 19 -5 23 4 4 3 6 -3 5 -23 -7 -53 12 -48 30 3 11 -1 18 -11 18 -19
0 -19 -2 -6 -27 7 -13 6 -19 -5 -23 -9 -4 -12 -1 -8 10 3 8 0 19 -7 23 -11 7
-11 12 -2 23 10 12 10 15 -4 13 -9 0 -19 5 -22 13 -3 9 0 11 9 6 11 -6 12 -5
2 6 -18 18 -16 29 3 29 12 0 11 5 -7 21 -24 20 -24 20 -1 9 12 -6 27 -8 32 -5
6 4 7 -1 3 -11 -5 -13 -3 -16 10 -11 9 3 17 2 17 -4 0 -6 -9 -13 -20 -16 -11
-3 -20 -9 -20 -13 0 -14 38 1 44 17 4 9 2 21 -4 28 -5 6 -7 15 -3 18 3 4 -5 7
-20 7 -35 0 -58 10 -51 22 4 6 10 5 15 -3 7 -11 9 -10 9 4 0 9 -4 17 -9 17 -4
0 -6 11 -3 25 3 17 0 25 -8 23 -7 -2 -15 4 -17 12 -4 12 -3 12 5 1 8 -11 11
-11 18 0 5 8 9 17 10 22 1 4 2 10 3 13 0 4 8 1 17 -7 14 -11 14 -13 0 -21 -22
-12 -20 -29 2 -21 14 5 13 3 -3 -10 -20 -16 -19 -16 8 -15 15 1 27 7 27 12 0
5 6 2 13 -9 11 -14 16 -15 22 -5 5 9 4 11 -4 6 -9 -6 -10 0 -6 21 5 20 4 24
-3 14 -10 -14 -47 -8 -38 7 3 5 -6 21 -19 36 -19 22 -22 33 -14 47 8 15 6 19
-6 19 -9 0 -13 -4 -10 -10 4 -6 -1 -7 -11 -3 -15 6 -15 7 1 15 9 6 27 8 40 5
15 -2 26 1 30 11 4 11 8 12 20 2 10 -9 15 -9 15 -1 0 6 -4 11 -10 11 -5 0 -7
6 -4 14 3 8 0 17 -6 21 -6 3 -10 3 -9 -2 3 -20 -2 -34 -11 -28 -6 4 -8 12 -4
18 3 7 -2 3 -10 -7 -17 -21 -52 -29 -53 -12 0 6 -2 16 -3 21 -5 20 0 35 11 35
8 0 8 -4 0 -14 -9 -11 -9 -16 0 -22 7 -4 10 -3 6 2 -3 5 1 18 9 29 12 16 14
17 14 2 0 -21 16 -22 24 -1 12 30 6 37 -26 31 -18 -3 -27 -3 -20 0 6 2 12 9
12 14 0 6 -4 8 -8 5 -4 -2 -14 -1 -21 3 -9 6 -10 11 -2 15 6 4 11 3 11 -2 0
-5 7 -9 15 -9 20 0 19 16 -1 24 -8 3 -13 11 -10 19 3 7 -2 18 -9 24 -15 12
-11 35 4 25 5 -2 13 7 20 21 15 33 14 34 -6 27 -13 -4 -12 -1 5 14 23 22 31
49 10 37 -7 -4 -10 -4 -6 1 4 4 2 17 -3 28 -13 23 2 37 39 37 12 0 22 4 22 8
0 5 -8 8 -17 7 -31 -3 -63 -16 -63 -26 0 -5 -5 -9 -11 -9 -8 0 -8 4 0 13 7 10
7 17 0 24 -8 8 -8 13 0 17 6 4 11 0 11 -8 0 -21 19 -21 27 0 3 8 11 13 18 10
19 -7 25 16 10 43 -9 18 -13 20 -18 8 -6 -16 -57 -20 -57 -4 0 6 3 8 6 4 7 -6
34 17 34 28 0 4 -7 5 -15 1 -8 -3 -15 -2 -15 3 0 5 9 11 21 14 13 4 18 10 14
17 -6 9 -9 9 -15 0 -5 -9 -9 -9 -14 -1 -4 6 -1 11 6 11 8 0 9 3 3 8 -14 10
-17 32 -5 32 20 0 25 -5 21 -25 -2 -16 0 -18 10 -7 16 15 29 16 29 2 0 -5 -7
-10 -16 -10 -8 0 -12 -5 -9 -10 8 -13 25 -3 34 22 7 19 8 19 36 -4 17 -12 24
-15 18 -7 -7 9 -9 19 -5 23 4 4 3 6 -3 5 -23 -7 -53 12 -48 30 3 11 -1 18 -11
18 -19 0 -19 -2 -6 -27 7 -13 6 -19 -5 -23 -9 -4 -12 -1 -8 10 3 8 0 19 -7 23
-11 7 -11 12 -2 23 10 12 10 15 -4 13 -9 0 -19 5 -22 13 -3 9 0 11 9 6 11 -6
12 -5 2 6 -18 18 -16 29 3 29 12 0 11 5 -7 21 -24 20 -24 20 -1 9 12 -6 27 -8
32 -5 6 4 7 -1 3 -11 -5 -13 -3 -16 10 -11 9 3 17 2 17 -4 0 -6 -9 -13 -20
-16 -11 -3 -20 -9 -20 -13 0 -14 38 1 44 17 4 9 2 21 -4 28 -5 6 -7 15 -3 18
3 4 -5 7 -20 7 -35 0 -58 10 -51 22 4 6 10 5 15 -3 7 -11 9 -10 9 4 0 9 -4 17
-9 17 -4 0 -6 11 -3 25 3 17 0 25 -8 23 -7 -2 -15 4 -17 12 -3 12 -2 12 5 2 7
-10 12 -9 23 4 8 9 13 19 12 21 -9 11 0 13 13 2 14 -11 14 -13 0 -21 -22 -12
-20 -29 2 -21 14 5 13 3 -3 -10 -20 -16 -19 -16 8 -15 15 1 27 7 27 12 0 5 6
2 13 -9 11 -14 16 -15 22 -5 5 9 4 11 -4 6 -9 -6 -10 0 -6 21 5 20 4 24 -3 14
-10 -14 -47 -8 -38 7 3 5 -6 21 -19 36 -19 22 -22 33 -14 47 8 15 6 19 -6 19
-9 0 -13 -4 -10 -10 4 -6 -1 -7 -11 -3 -15 6 -15 7 1 15 9 6 27 8 40 5 15 -2
26 1 30 11 4 11 8 12 20 2 10 -9 15 -9 15 -1 0 6 -4 11 -10 11 -5 0 -7 6 -4
14 3 8 0 17 -6 21 -6 3 -10 3 -9 -2 3 -20 -2 -34 -11 -28 -6 4 -8 12 -4 18 3
7 -2 3 -10 -7 -17 -21 -52 -29 -53 -12 0 6 -2 16 -3 21 -5 20 0 35 11 35 8 0
8 -4 0 -14 -9 -11 -9 -16 0 -22 7 -4 10 -3 6 2 -3 5 1 18 9 29 12 16 14 17 14
2 0 -21 16 -22 24 -1 12 30 6 37 -26 31 -18 -3 -27 -3 -20 0 6 2 12 9 12 14 0
6 -4 8 -8 5 -4 -2 -14 -1 -21 3 -9 6 -10 11 -2 15 6 4 11 3 11 -2 0 -5 7 -9
15 -9 20 0 19 16 -1 24 -8 3 -13 11 -10 19 3 7 -2 18 -9 24 -15 12 -11 35 4
25 10 -6 33 44 26 56 -4 5 -12 9 -18 9 -7 0 -6 -4 3 -10 8 -5 11 -10 6 -10 -5
0 -24 11 -43 26 -31 23 -37 23 -34 -1 1 -5 -5 -2 -12 7 -8 10 -18 14 -23 10
-4 -4 -2 1 5 11 12 15 12 17 -5 11 -11 -4 -4 7 16 24 24 21 29 30 17 28 -10
-1 -17 -6 -16 -11 2 -14 -25 -24 -37 -14 -9 8 -11 4 -7 -13 5 -23 5 -23 -11
-3 -10 11 -14 14 -10 6 5 -10 0 -12 -25 -6 -35 7 -39 4 -14 -16 11 -9 14 -10
9 -2 -5 9 -2 11 10 6 15 -6 15 -7 0 -15 -11 -6 -22 -6 -31 2 -10 8 -15 8 -19
-2 -5 -10 -7 -10 -12 0 -3 6 -10 12 -15 12 -6 0 -8 -4 -4 -9 3 -5 1 -12 -4
-15 -5 -4 -12 -2 -16 4 -4 6 -12 7 -18 3 -7 -4 -6 0 2 10 7 9 16 15 20 13 4
-3 13 -1 21 5 12 7 12 9 -3 9 -11 0 -16 5 -12 13 4 6 0 4 -9 -7 -8 -10 -20
-15 -27 -10 -7 4 -10 3 -5 -4 3 -6 2 -13 -4 -17 -5 -3 -10 1 -10 9 0 9 -5 16
-11 16 -5 0 -7 4 -4 10 3 6 -1 7 -9 4 -9 -3 -16 -10 -16 -16 0 -5 -6 -6 -12
-2 -7 4 -2 -4 12 -17 13 -13 29 -22 35 -21 5 2 6 0 2 -4 -15 -15 -36 -12 -42
7 -4 10 -13 19 -22 19 -22 0 -11 19 22 38 17 9 32 18 34 20 3 1 -1 8 -7 14 -7
7 -12 19 -12 27 0 11 4 10 20 -4 18 -17 20 -17 14 -2 -5 13 -2 16 9 11 9 -3
13 -12 10 -20 -3 -8 0 -14 7 -14 6 0 8 5 5 10 -3 6 1 10 9 10 9 0 15 3 15 8
-4 21 3 23 22 6 17 -15 22 -16 29 -4 5 8 6 18 4 22 -3 4 2 8 10 8 9 0 16 5 16
11 0 5 -4 8 -9 4 -6 -3 -15 3 -21 12 -10 16 -11 16 -7 -4 3 -14 0 -23 -6 -23
-7 0 -5 -5 3 -10 13 -8 13 -10 -1 -10 -24 0 -30 11 -17 29 10 12 7 12 -8 -2
-11 -9 -24 -14 -27 -10 -4 3 -7 -1 -7 -11 0 -13 -4 -15 -19 -7 -10 6 -21 7
-25 4 -3 -4 -13 2 -21 13 -15 19 -15 19 -9 -1 4 -15 0 -13 -16 8 -12 15 -27
24 -32 21 -7 -4 -8 -2 -4 4 5 9 13 9 27 2 21 -12 39 -6 39 13 0 9 -2 9 -8 0
-7 -10 -12 -10 -26 0 -16 12 -17 17 -6 36 8 17 9 26 1 34 -14 14 -14 27 0 27
5 0 7 -6 3 -12 -4 -7 4 -2 19 11 l26 23 -5 -23 c-4 -22 -4 -22 5 -4 13 27 13
48 1 40 -5 -3 -10 2 -10 12 0 15 -2 15 -9 3 -6 -8 -8 -17 -5 -21 5 -9 -35 -23
-44 -15 -3 3 -6 21 -6 40 -1 19 -4 32 -8 29 -8 -4 -10 5 -11 43 0 11 -6 21
-13 21 -8 0 -14 -4 -14 -9 0 -4 4 -8 8 -8 17 0 5 -43 -13 -46 -13 -2 -15 0 -6
9 15 15 14 30 -1 21 -21 -13 -56 -11 -51 3 4 10 -1 11 -20 4 -16 -6 -28 -6
-35 1 -7 7 -10 4 -9 -8 1 -11 6 -22 11 -26 5 -3 -3 -5 -17 -5 -20 2 -27 7 -26
22 0 11 3 14 6 8 2 -7 9 -13 15 -13 7 0 7 4 1 13 -12 16 -14 59 -2 52 5 -4 9
-1 9 5 0 7 -7 10 -15 6 -8 -3 -15 -2 -15 3 0 5 9 11 20 14 15 4 20 0 20 -15 0
-11 4 -16 11 -13 6 4 8 14 5 22 -3 8 -2 11 3 8 5 -3 13 0 17 7 4 7 4 10 0 6
-5 -4 -19 -3 -33 3 -18 6 -22 6 -17 -3 5 -8 2 -9 -9 -5 -10 3 -17 3 -17 -2 0
-4 -10 -13 -22 -20 -13 -6 -15 -9 -6 -7 28 8 40 -25 18 -54 l-18 -23 3 27 c2
15 0 25 -3 21 -7 -6 -8 -11 -11 -37 0 -6 -9 -1 -20 10 -10 12 -21 19 -25 15
-10 -10 -7 -25 4 -18 6 3 10 -4 9 -17 0 -13 -3 -17 -6 -10 -4 10 -8 10 -21 0
-15 -11 -15 -11 -5 3 7 9 10 19 6 22 -8 9 17 38 27 32 5 -3 11 -1 15 5 3 5 -1
10 -9 10 -15 0 -21 12 -17 33 1 5 -3 6 -9 2 -6 -4 -8 -15 -5 -25 3 -11 0 -20
-10 -24 -9 -3 -13 -2 -10 4 3 6 1 10 -5 10 -6 0 -8 5 -5 10 3 6 -3 10 -14 10
-12 0 -21 5 -21 10 0 6 10 8 24 4 13 -3 27 -1 31 5 3 7 3 11 -2 10 -26 -4 -44
2 -37 14 6 9 3 8 -8 -1 -9 -8 -19 -23 -21 -35 -4 -18 -5 -17 -6 6 0 15 4 27 9
27 6 0 10 7 10 16 0 8 -3 13 -7 11 -5 -3 -9 8 -10 23 -2 28 20 49 32 30 8 -13
25 -13 25 1 0 5 -4 7 -10 4 -5 -3 -10 -2 -10 4 0 5 5 13 10 16 7 4 7 13 0 26
-9 16 -7 19 10 19 11 0 20 6 20 13 0 6 3 23 7 36 5 20 3 23 -10 18 -9 -3 -19
-1 -23 5 -4 7 -9 6 -15 -3 -4 -8 -17 -15 -28 -15 -11 -1 -18 3 -15 8 3 4 10 6
15 3 5 -4 9 -2 9 3 0 6 -7 12 -15 16 -13 4 -15 36 -15 196 l0 190 -385 0 -385
0 0 -190z m860 -232 c0 -4 -4 -8 -10 -8 -5 0 -10 -6 -10 -14 0 -8 -7 -17 -16
-20 -9 -4 -14 -13 -10 -21 3 -8 1 -15 -4 -15 -6 0 -10 2 -10 4 0 2 -3 12 -7
22 -4 12 -3 15 5 10 16 -10 15 7 0 23 -11 10 -9 12 7 9 11 -1 19 2 18 7 -1 6
7 11 18 11 10 0 19 -4 19 -8z m-45 -258 c-3 -5 -1 -10 4 -10 6 0 11 -4 11 -9
0 -5 -9 -7 -20 -4 -12 3 -20 0 -20 -6 0 -7 -4 -10 -10 -6 -5 3 -2 14 8 25 18
19 37 27 27 10z m379 -343 c-8 -5 -12 -12 -9 -18 4 -5 -1 -9 -9 -9 -20 0 -21
29 -1 36 8 4 15 10 15 16 0 5 -4 6 -10 3 -11 -7 -14 8 -3 19 4 3 12 -4 19 -16
10 -19 10 -24 -2 -31z m32 -19 c4 -6 3 -8 -4 -4 -5 3 -13 0 -15 -6 -3 -8 -6
-6 -6 5 -1 19 14 23 25 5z m337 -731 c3 -8 -1 -14 -8 -14 -7 0 -11 6 -8 14 3
7 6 13 8 13 2 0 5 -6 8 -13z m47 -170 c0 -8 -7 -14 -15 -14 -11 0 -12 4 -4 14
6 7 13 13 15 13 2 0 4 -6 4 -13z m-47 -790 c3 -8 -1 -14 -8 -14 -7 0 -11 6 -8
14 3 7 6 13 8 13 2 0 5 -6 8 -13z m47 -170 c0 -8 -7 -14 -15 -14 -11 0 -12 4
-4 14 6 7 13 13 15 13 2 0 4 -6 4 -13z"/>
<path d="M2807 2673 c-10 -9 -9 -23 1 -23 5 0 9 7 9 15 0 17 -1 18 -10 8z"/>
<path d="M2830 2671 c0 -6 4 -12 8 -15 5 -3 9 1 9 9 0 8 -4 15 -9 15 -4 0 -8
-4 -8 -9z"/>
<path d="M2936 2655 c-16 -24 -16 -25 5 -25 16 0 19 -3 12 -12 -6 -7 -13 -21
-16 -30 -5 -15 -4 -16 13 -6 14 9 16 14 7 20 -11 7 -2 12 17 9 12 -2 36 19 36
33 0 6 -4 5 -9 -3 -6 -9 -18 -11 -35 -7 -16 4 -24 11 -20 17 4 8 9 7 14 -1 4
-7 13 -11 20 -8 7 2 5 10 -8 21 -19 17 -20 17 -36 -8z"/>
<path d="M2987 2669 c7 -7 15 -10 18 -7 3 3 -2 9 -12 12 -14 6 -15 5 -6 -5z"/>
<path d="M3043 2662 c0 -10 7 -19 14 -19 9 0 10 4 3 12 -5 7 -7 15 -3 18 3 4
1 7 -5 7 -6 0 -10 -8 -9 -18z"/>
<path d="M2885 2630 c-3 -5 -2 -10 4 -10 5 0 13 5 16 10 3 6 2 10 -4 10 -5 0
-13 -4 -16 -10z"/>
<path d="M2820 2619 c0 -6 -7 -8 -17 -5 -16 6 -16 6 0 -12 9 -10 15 -22 12
-25 -3 -4 -2 -5 2 -2 7 6 14 55 7 55 -2 0 -4 -5 -4 -11z"/>
<path d="M3050 2609 c0 -5 5 -7 10 -4 6 3 10 8 10 11 0 2 -4 4 -10 4 -5 0 -10
-5 -10 -11z"/>
<path d="M2972 2584 c-11 -12 -9 -14 8 -14 11 0 20 4 20 9 0 17 -15 19 -28 5z"/>
<path d="M2781 2577 c-15 -19 -6 -39 24 -53 28 -13 44 -1 40 29 -2 9 1 17 6
17 6 0 7 5 3 11 -10 16 -23 -9 -18 -35 3 -19 2 -20 -10 -3 -14 18 -32 24 -21
7 3 -6 -1 -7 -9 -4 -19 7 -21 21 -3 27 6 2 9 7 6 11 -3 4 -11 0 -18 -7z"/>
<path d="M3007 2556 c-14 -21 -15 -26 -1 -36 12 -11 13 -10 8 3 -3 8 -1 25 6
36 15 29 6 26 -13 -3z"/>
<path d="M2933 2544 c1 -17 5 -20 21 -14 22 8 34 30 16 30 -6 0 -8 -4 -5 -10
3 -5 0 -10 -9 -10 -8 0 -16 6 -19 13 -3 6 -4 2 -4 -9z"/>
<path d="M3045 2552 c-15 -11 -15 -60 1 -66 7 -3 16 0 20 6 4 7 3 8 -4 4 -7
-4 -12 -3 -12 3 0 5 5 13 10 16 6 3 10 11 10 16 0 6 -5 7 -12 3 -8 -5 -9 -2
-5 9 7 19 6 20 -8 9z"/>
<path d="M2903 2528 c-2 -18 0 -20 7 -8 12 18 13 30 2 30 -4 0 -9 -10 -9 -22z"/>
<path d="M2714 2519 c-3 -6 1 -18 10 -27 15 -15 17 -15 32 0 15 14 14 15 -10
11 -21 -4 -25 -2 -20 11 7 18 -1 22 -12 5z"/>
<path d="M2860 2515 c0 -8 7 -15 15 -15 8 0 15 7 15 15 0 8 -7 15 -15 15 -8 0
-15 -7 -15 -15z"/>
<path d="M2952 2503 c2 -10 -1 -18 -7 -18 -5 0 -15 -4 -22 -8 -6 -4 -14 -3
-18 3 -3 5 -1 10 6 10 7 0 10 3 6 6 -3 4 -21 -3 -39 -15 -23 -16 -26 -20 -11
-16 12 3 31 1 43 -5 17 -9 20 -8 20 7 1 17 1 17 14 0 9 -12 16 -14 21 -8 3 6
1 11 -5 11 -6 0 -8 5 -5 10 5 8 11 8 20 0 9 -7 16 -6 24 4 9 10 7 16 -6 27
-16 12 -17 12 -6 -2 7 -9 10 -19 6 -22 -9 -9 -34 13 -27 24 3 5 0 9 -6 9 -6 0
-10 -8 -8 -17z"/>
<path d="M2792 2490 c-7 -11 -16 -19 -21 -16 -4 3 -8 -1 -8 -9 0 -8 4 -15 9
-15 4 0 8 5 8 11 0 5 5 7 10 4 6 -4 8 -11 5 -16 -3 -5 1 -6 10 -3 14 6 14 8
-2 21 -14 12 -15 14 -2 10 9 -3 22 -1 30 5 11 8 11 9 -3 4 -10 -3 -18 1 -20
10 -2 11 -6 10 -16 -6z"/>
<path d="M3006 2444 c-4 -11 -2 -15 8 -11 8 3 17 1 20 -6 3 -9 5 -8 5 1 1 7 5
11 9 8 5 -3 9 1 9 9 0 11 -4 12 -14 4 -9 -8 -13 -8 -13 0 0 17 -17 13 -24 -5z"/>
<path d="M2845 2440 c-4 -6 -11 -7 -17 -4 -6 4 -8 2 -5 -4 4 -5 16 -8 27 -5
11 3 17 9 14 14 -7 12 -11 11 -19 -1z"/>
<path d="M3045 2410 c-3 -5 -2 -10 4 -10 5 0 13 5 16 10 3 6 2 10 -4 10 -5 0
-13 -4 -16 -10z"/>
<path d="M2945 2390 c-4 -6 -3 -10 2 -9 4 1 13 0 18 -1 6 -1 17 -3 25 -4 8 0
15 -6 15 -13 0 -26 13 -22 17 6 3 20 1 28 -6 23 -14 -9 -37 -9 -53 1 -6 4 -15
3 -18 -3z"/>
<path d="M2910 2376 c0 -2 7 -7 16 -10 8 -3 12 -2 9 4 -6 10 -25 14 -25 6z"/>
<path d="M4989 2288 c-1 -13 -1 -92 -1 -175 0 -97 -4 -153 -10 -153 -7 0 -7
-4 0 -13 6 -7 11 -91 12 -215 1 -200 1 -202 -21 -202 -15 0 -19 -4 -15 -16 15
-38 18 -64 7 -64 -6 0 -7 7 -4 17 6 15 5 16 -9 3 -9 -8 -12 -17 -7 -18 6 -2 5
-10 -1 -17 -6 -8 -17 -12 -25 -9 -7 3 -16 1 -19 -4 -3 -5 2 -9 12 -8 9 0 16
-5 15 -11 -2 -7 1 -13 6 -13 5 0 11 10 13 23 2 15 10 22 25 23 12 1 20 -3 17
-8 -3 -4 -10 -6 -15 -3 -5 4 -9 -2 -9 -12 0 -11 -6 -25 -12 -32 -11 -11 -10
-13 4 -8 25 9 32 -10 8 -23 -11 -6 -18 -15 -15 -21 4 -5 10 -7 15 -4 4 3 13
-9 19 -25 9 -28 8 -30 -14 -30 -19 0 -23 -4 -20 -22 4 -16 2 -19 -7 -10 -7 7
-21 12 -32 12 -19 -1 -19 -2 4 -15 14 -8 34 -14 44 -15 28 0 10 -14 -22 -17
-15 -1 -21 0 -14 4 10 4 7 9 -10 17 -12 7 -22 19 -20 27 3 18 -32 19 -50 1 -9
-9 -16 -8 -28 3 -15 13 -17 13 -17 0 0 -9 11 -18 24 -21 13 -4 23 -12 23 -20
0 -7 11 -16 24 -20 14 -3 27 -13 29 -22 4 -14 5 -14 6 1 1 11 -7 21 -19 24
-11 3 -17 9 -15 14 3 4 -2 12 -11 17 -10 5 -14 14 -9 22 5 8 19 -1 44 -30 20
-23 36 -47 36 -53 0 -6 7 -12 15 -14 9 -3 11 -1 5 4 -13 10 -13 34 0 31 6 -2
9 -6 8 -10 -2 -5 5 -8 15 -8 9 0 13 -4 7 -8 -22 -16 -35 -40 -29 -55 6 -16 34
-12 34 5 0 5 -5 6 -12 2 -7 -5 -8 -3 -3 5 11 18 25 -1 19 -25 -4 -16 -12 -19
-35 -16 -16 2 -29 9 -29 14 0 5 5 6 10 3 19 -12 10 8 -12 27 -12 11 -30 17
-40 15 -14 -4 -18 1 -18 18 0 13 -4 26 -9 29 -4 3 -5 -9 -2 -27 6 -25 11 -31
28 -29 12 2 24 -2 28 -8 6 -9 -13 -13 -67 -13 -9 0 -14 -5 -12 -11 2 -6 -2
-20 -10 -31 -15 -20 -15 -20 -30 0 -8 11 -16 15 -16 9 0 -6 7 -17 15 -24 11
-9 19 -8 37 4 13 9 22 19 21 21 -2 3 0 5 5 4 4 -1 6 -5 4 -11 -1 -5 2 -7 7 -4
5 4 12 2 16 -4 3 -5 -1 -10 -9 -10 -9 0 -16 -4 -16 -10 0 -5 7 -7 15 -4 8 4
15 1 15 -5 0 -6 -4 -11 -10 -11 -5 0 -7 -7 -4 -15 8 -20 -6 -19 -23 3 -8 9
-11 11 -8 4 4 -8 -1 -19 -11 -27 -12 -9 -14 -14 -6 -15 7 0 10 -5 7 -11 -5 -7
-13 -5 -25 6 -14 13 -20 14 -26 3 -4 -7 -3 -10 1 -5 5 4 20 -3 33 -15 14 -13
22 -17 18 -10 -4 6 -4 12 1 13 4 0 18 2 31 3 14 2 21 -2 18 -9 -2 -6 2 -12 9
-12 7 0 12 7 11 15 -4 23 23 72 39 72 9 0 12 -6 9 -15 -4 -8 -10 -13 -14 -10
-12 8 -5 -24 8 -37 8 -8 12 -9 12 -1 0 6 -5 14 -10 16 -6 3 -5 4 2 3 7 -1 13
-12 14 -23 1 -15 -3 -20 -14 -16 -10 4 -13 1 -10 -8 3 -8 11 -13 17 -11 7 1
10 -2 6 -8 -3 -6 -10 -8 -14 -6 -4 3 -8 -1 -8 -9 0 -8 3 -13 5 -10 3 3 12 -9
19 -26 8 -20 17 -28 25 -23 7 4 1 -5 -15 -21 -15 -15 -29 -26 -32 -24 -8 8 7
49 16 43 5 -3 6 2 2 12 -5 14 -7 15 -15 1 -5 -10 -16 -14 -26 -11 -10 4 -13 2
-7 -3 14 -11 19 -47 6 -39 -6 4 -24 9 -40 11 -24 3 -29 0 -24 -13 4 -9 8 -11
10 -5 2 5 14 8 28 6 16 -4 22 -11 20 -24 -5 -23 13 -35 28 -20 9 9 7 10 -8 5
-18 -7 -18 -6 -6 9 7 9 17 17 21 17 12 0 19 -39 9 -46 -5 -3 -9 -11 -9 -17 0
-8 3 -8 9 2 6 9 11 10 15 2 4 -6 1 -14 -7 -17 -7 -2 -14 -11 -14 -19 0 -11 4
-12 14 -3 11 9 12 7 7 -8 -5 -18 -5 -18 10 0 18 22 21 14 6 -15 -6 -10 -18
-19 -26 -19 -9 0 -13 5 -9 13 4 6 -2 1 -14 -13 -20 -25 -20 -25 0 -46 10 -11
19 -25 19 -31 0 -6 9 -9 20 -6 12 3 20 0 20 -7 0 -7 -7 -10 -16 -6 -13 5 -14
1 -9 -24 4 -18 3 -30 -4 -30 -6 0 -7 8 -4 17 6 15 5 16 -9 3 -9 -8 -12 -17 -7
-18 6 -2 5 -10 -1 -17 -6 -8 -17 -12 -25 -9 -7 3 -16 1 -19 -4 -3 -5 2 -9 12
-8 9 0 16 -5 14 -11 -1 -7 2 -13 7 -13 5 0 11 10 13 23 2 15 10 22 25 23 12 1
20 -3 17 -8 -3 -4 -10 -6 -15 -3 -5 4 -9 -2 -9 -12 0 -11 -6 -25 -12 -32 -11
-11 -10 -13 4 -8 25 9 32 -10 8 -23 -11 -6 -18 -15 -15 -21 4 -5 10 -7 15 -4
4 3 13 -9 19 -25 9 -28 8 -30 -14 -30 -19 0 -23 -4 -20 -22 4 -16 2 -19 -7
-10 -7 7 -21 12 -33 12 -18 -1 -18 -2 5 -15 14 -8 34 -14 44 -15 28 0 10 -14
-22 -17 -15 -1 -21 0 -14 4 10 4 7 9 -10 17 -12 7 -22 19 -20 27 3 18 -32 19
-50 1 -9 -9 -16 -8 -28 3 -15 13 -17 13 -17 0 0 -9 11 -18 24 -21 13 -4 23
-12 23 -20 0 -7 11 -16 24 -20 14 -3 27 -13 29 -22 4 -14 5 -14 6 1 1 11 -7
21 -19 24 -11 3 -17 9 -15 14 3 4 -2 12 -11 17 -10 5 -14 14 -9 22 5 8 19 -1
44 -30 20 -23 36 -47 36 -53 0 -6 7 -12 15 -14 9 -3 11 -1 5 4 -13 10 -13 34
0 31 6 -2 9 -6 7 -10 -1 -5 5 -8 14 -8 14 0 14 -2 -1 -16 -9 -9 -13 -19 -9
-23 4 -3 9 0 11 7 3 6 9 10 14 6 12 -7 106 24 272 88 l127 50 0 609 0 609 190
0 190 0 0 -510 c0 -280 2 -510 5 -510 4 0 59 33 123 74 209 132 428 303 580
450 l62 60 0 218 0 218 -190 0 -190 0 0 190 0 190 -195 0 -195 0 0 195 0 195
-385 0 -385 0 -1 -22z m1 -778 c0 -5 -4 -10 -9 -10 -6 0 -13 5 -16 10 -3 6 1
10 9 10 9 0 16 -4 16 -10z m-77 -415 c-6 -17 23 -55 41 -55 6 0 5 4 -3 9 -9 6
-10 11 -2 15 6 4 11 3 11 -3 0 -6 8 -8 18 -5 14 5 15 4 2 -5 -13 -9 -13 -11 0
-11 13 0 13 -2 1 -9 -17 -11 -41 -4 -59 18 -11 13 -13 13 -10 1 4 -21 -21 -77
-37 -84 -8 -3 -19 3 -27 12 -10 12 -10 14 0 8 16 -9 44 12 35 27 -3 6 -1 7 5
3 16 -10 15 7 0 23 -10 11 -10 13 0 7 6 -4 12 -2 12 3 0 6 -4 11 -10 11 -5 0
-14 10 -21 21 -6 12 -7 19 -2 16 4 -2 17 -1 28 4 11 4 21 8 22 8 1 1 0 -6 -4
-14z m61 -100 c3 -9 0 -15 -9 -15 -8 0 -15 7 -15 15 0 8 4 15 9 15 5 0 11 -7
15 -15z m1 -204 c-3 -6 -11 -11 -16 -11 -5 0 -4 6 3 14 14 16 24 13 13 -3z
m10 -21 c-3 -5 -12 -10 -18 -10 -7 0 -6 4 3 10 19 12 23 12 15 0z m-39 -149
c-4 -5 0 -11 6 -14 7 -2 10 -8 6 -12 -4 -4 -11 -4 -17 0 -14 8 -14 35 0 35 5
0 8 -4 5 -9z"/>
<path d="M3090 2282 c0 -12 3 -12 15 -2 8 7 15 13 15 15 0 1 -7 2 -15 2 -8 0
-15 -7 -15 -15z"/>
<path d="M3259 2283 c-11 -15 -11 -16 1 -5 8 6 17 12 22 12 4 0 6 -6 4 -12 -1
-7 -1 -10 1 -5 3 4 12 7 21 7 15 0 15 2 2 10 -22 14 -36 12 -51 -7z"/>
<path d="M3385 2290 c3 -5 8 -10 11 -10 2 0 4 5 4 10 0 6 -5 10 -11 10 -5 0
-7 -4 -4 -10z"/>
<path d="M3201 2274 c0 -11 3 -14 6 -6 3 7 2 16 -1 19 -3 4 -6 -2 -5 -13z"/>
<path d="M3348 2272 c-4 -12 1 -18 13 -18 23 0 23 3 5 21 -12 12 -15 12 -18
-3z"/>
<path d="M3220 2255 c-7 -9 -11 -17 -9 -20 3 -2 10 5 17 15 14 24 10 26 -8 5z"/>
<path d="M3435 2260 c-4 -6 -11 -7 -17 -4 -7 4 -8 2 -4 -4 4 -7 3 -12 -2 -12
-6 0 -9 -11 -8 -24 0 -13 5 -22 9 -19 4 3 6 10 4 16 -3 7 5 22 16 35 11 12 18
22 14 22 -3 0 -9 -5 -12 -10z"/>
<path d="M3280 2242 c0 -4 11 -8 25 -8 33 -2 33 11 0 14 -14 1 -25 -2 -25 -6z"/>
<path d="M3179 2238 c-6 -25 -6 -38 1 -38 12 0 20 29 10 35 -6 4 -10 5 -11 3z"/>
<path d="M3371 2223 c-7 -8 -19 -12 -26 -9 -9 3 -11 -2 -7 -17 3 -12 7 -16 10
-9 2 8 10 4 22 -10 15 -19 21 -21 32 -10 11 11 10 13 -7 10 -12 -2 -21 4 -23
16 -2 11 0 16 6 12 13 -8 23 6 14 21 -5 7 -11 6 -21 -4z"/>
<path d="M3209 2213 c-1 -5 -1 -11 0 -15 0 -5 -3 -9 -9 -9 -5 -1 -16 -2 -22
-3 -7 -1 -16 3 -20 9 -5 6 -8 6 -8 -2 0 -7 -7 -13 -15 -13 -19 0 -19 -16 0
-24 8 -3 14 0 12 6 -1 5 6 12 16 13 19 4 25 -31 6 -37 -7 -2 -6 -8 4 -16 12
-10 15 -10 14 0 -1 35 4 59 12 54 4 -3 13 6 19 19 7 15 8 25 2 25 -6 0 -11 -3
-11 -7z"/>
<path d="M3258 2208 c9 -11 10 -18 2 -23 -5 -3 -10 -12 -10 -18 0 -9 3 -8 8 1
5 7 16 10 24 7 9 -4 19 -1 23 5 8 13 3 21 -17 24 -7 1 -20 6 -28 11 -13 7 -13
6 -2 -7z"/>
<path d="M3427 2200 c-3 -13 0 -20 9 -20 15 0 19 26 5 34 -5 3 -11 -3 -14 -14z"/>
<path d="M3318 2163 c7 -3 16 -2 19 1 4 3 -2 6 -13 5 -11 0 -14 -3 -6 -6z"/>
<path d="M3406 2155 c-11 -8 -14 -15 -8 -15 7 0 12 -5 12 -11 0 -7 -10 -9 -27
-4 -31 7 -30 7 9 -18 19 -12 29 -14 34 -5 4 7 3 8 -4 4 -7 -4 -12 -2 -12 3 0
6 5 11 11 11 8 0 8 4 0 13 -8 10 -7 17 1 25 16 16 7 14 -16 -3z"/>
<path d="M3442 2150 c0 -14 2 -19 5 -12 2 6 2 18 0 25 -3 6 -5 1 -5 -13z"/>
<path d="M3320 2096 c0 -2 7 -9 15 -16 9 -7 15 -8 15 -2 0 5 -7 12 -15 16 -8
3 -15 4 -15 2z"/>
<path d="M3375 2092 c-18 -13 -16 -41 5 -52 11 -6 20 -7 20 -1 0 5 -8 12 -17
15 -10 4 -13 10 -8 14 6 4 11 13 13 20 2 14 1 14 -13 4z"/>
<path d="M3295 2060 c-3 -6 1 -7 9 -4 18 7 21 14 7 14 -6 0 -13 -4 -16 -10z"/>
<path d="M3310 2036 c0 -2 6 -9 13 -15 10 -8 14 -7 14 4 0 8 -6 15 -14 15 -7
0 -13 -2 -13 -4z"/>
<path d="M3233 2020 c2 -8 12 -16 23 -17 13 -2 15 -1 4 4 -8 3 -19 11 -23 17
-6 7 -7 6 -4 -4z"/>
<path d="M3436 1985 c4 -8 8 -15 10 -15 2 0 4 7 4 15 0 8 -4 15 -10 15 -5 0
-7 -7 -4 -15z"/>
<path d="M3410 1970 c0 -5 5 -10 11 -10 5 0 7 5 4 10 -3 6 -8 10 -11 10 -2 0
-4 -4 -4 -10z"/>
<path d="M3533 1908 c-5 -7 -9 -27 -8 -45 1 -18 -2 -30 -6 -27 -13 8 -11 -10
3 -24 7 -7 8 -12 3 -12 -6 0 -10 -10 -10 -23 0 -13 5 -24 12 -24 6 0 9 6 6 14
-3 7 -1 13 5 13 5 0 12 7 16 15 3 8 0 14 -7 12 -7 -1 -11 7 -10 18 6 47 9 95
7 95 -1 0 -6 -6 -11 -12z"/>
<path d="M3586 1905 c4 -8 8 -15 10 -15 2 0 4 7 4 15 0 8 -4 15 -10 15 -5 0
-7 -7 -4 -15z"/>
<path d="M3650 1905 c0 -8 -3 -14 -7 -14 -5 1 -15 1 -23 0 -13 -1 -13 -2 0
-11 12 -8 12 -10 1 -10 -8 0 -11 -3 -8 -6 4 -4 14 -1 22 6 13 11 18 11 28 0 9
-9 9 -11 0 -6 -13 7 -28 -10 -15 -18 11 -6 24 4 40 32 12 22 12 23 -9 11 -20
-10 -21 -9 -16 10 3 11 1 21 -4 21 -5 0 -9 -7 -9 -15z"/>
<path d="M3787 1908 c-5 -16 10 -48 23 -48 6 0 10 5 10 11 0 5 -4 8 -9 5 -5
-3 -12 1 -15 10 -4 12 -1 14 14 9 13 -4 20 -2 20 6 0 7 -3 9 -7 6 -3 -4 -12
-2 -19 4 -8 7 -13 6 -17 -3z"/>
<path d="M3560 1901 c0 -6 4 -13 10 -16 6 -3 7 1 4 9 -7 18 -14 21 -14 7z"/>
<path d="M3753 1902 c-9 -5 -6 -12 10 -21 19 -13 21 -12 10 1 -7 8 -10 18 -6
21 9 9 1 8 -14 -1z"/>
<path d="M3693 1860 c-3 -11 -15 -22 -26 -26 -21 -7 -21 -7 2 -16 13 -4 26 -6
29 -3 3 3 0 5 -8 5 -10 0 -10 3 0 15 10 12 16 13 29 3 10 -8 9 -5 -3 10 -11
12 -14 22 -8 22 6 0 13 -4 16 -9 3 -5 17 -8 31 -8 23 0 24 1 8 11 -29 20 -65
17 -70 -4z"/>
<path d="M3500 1860 c0 -5 5 -10 11 -10 5 0 7 5 4 10 -3 6 -8 10 -11 10 -2 0
-4 -4 -4 -10z"/>
<path d="M3554 1859 c-9 -15 12 -17 30 -4 17 13 17 14 -4 12 -12 -1 -24 -5
-26 -8z"/>
<path d="M3733 1821 c-29 -24 -29 -26 5 -28 15 0 19 1 9 4 -9 2 -15 8 -12 13
3 5 12 7 20 3 17 -6 21 -43 5 -43 -5 0 -10 -6 -10 -14 0 -9 -7 -13 -20 -11
-11 2 -20 0 -20 -4 0 -5 9 -11 20 -14 11 -3 20 -1 20 5 0 5 5 6 10 3 6 -4 8
-15 5 -25 -5 -16 -1 -18 22 -16 16 2 28 9 28 17 1 8 6 13 11 12 6 -1 11 5 11
12 0 10 -4 12 -12 5 -7 -5 -16 -6 -20 -2 -5 4 -5 2 -2 -4 4 -7 0 -14 -8 -18
-19 -7 -19 8 -1 27 13 12 13 17 0 36 -8 11 -11 21 -6 21 6 0 12 7 16 15 4 13
2 14 -14 5 -16 -9 -20 -8 -20 5 0 20 -10 19 -37 -4z m54 -56 c0 -8 -7 -15 -15
-15 -12 0 -12 3 -2 15 7 8 13 15 15 15 1 0 2 -7 2 -15z"/>
<path d="M3574 1819 c-4 -8 -3 -9 4 -5 7 4 12 2 12 -3 0 -6 5 -11 11 -11 13 0
7 22 -8 27 -6 2 -15 -1 -19 -8z"/>
<path d="M3825 1810 c4 -7 2 -16 -6 -21 -11 -7 -10 -9 4 -9 19 0 23 25 5 36
-7 5 -8 3 -3 -6z"/>
<path d="M3567 1780 c-9 -12 -9 -13 2 -3 11 9 21 9 47 -2 18 -7 35 -11 37 -8
3 3 4 -14 2 -37 -3 -40 -15 -70 -15 -37 0 10 -6 17 -13 17 -7 0 -13 11 -12 27
0 17 -6 28 -15 29 -9 0 -10 -1 -2 -3 6 -3 12 -9 12 -14 0 -6 -4 -7 -10 -4 -5
3 -10 1 -10 -4 0 -6 4 -11 9 -11 5 0 8 -8 6 -17 -1 -10 -8 -17 -14 -15 -9 2
-9 -3 -1 -18 13 -24 22 -26 18 -4 -2 10 3 19 11 22 9 3 12 0 9 -10 -4 -10 1
-14 17 -14 14 0 26 7 28 18 3 10 1 16 -4 12 -5 -3 -9 4 -9 15 0 12 4 21 10 21
5 0 7 6 4 14 -4 10 2 12 20 9 14 -3 26 -1 26 4 0 5 -18 8 -40 8 -28 0 -39 3
-36 11 7 18 -63 12 -77 -6z"/>
<path d="M3703 1704 c1 -11 -4 -18 -11 -16 -8 1 -11 -2 -7 -8 4 -6 15 -4 31 6
15 10 24 12 24 5 0 -6 -5 -11 -11 -11 -6 0 -9 -7 -5 -15 5 -14 -12 -21 -39
-15 -5 1 -4 -4 3 -11 18 -19 15 -29 -8 -29 -13 0 -17 -5 -14 -14 3 -8 0 -16
-8 -19 -7 -2 -3 -2 9 -1 12 2 25 0 28 -6 3 -5 11 -10 17 -10 5 0 0 9 -13 21
-13 11 -18 18 -11 14 21 -11 33 4 22 26 -9 16 -7 19 10 19 11 0 20 6 20 13 0
6 3 23 7 36 5 19 3 23 -9 18 -9 -3 -20 -1 -26 5 -7 7 -10 4 -9 -8z"/>
<path d="M3501 1664 c0 -11 3 -14 6 -6 3 7 2 16 -1 19 -3 4 -6 -2 -5 -13z"/>
<path d="M3750 1664 c0 -6 7 -17 15 -24 8 -7 12 -17 8 -24 -3 -6 -2 -8 2 -4 5
5 10 20 11 35 2 21 1 24 -6 13 -9 -13 -11 -13 -20 0 -5 8 -10 10 -10 4z"/>
<path d="M3646 1645 c4 -8 10 -15 15 -15 5 0 9 7 9 15 0 8 -7 15 -15 15 -9 0
-12 -6 -9 -15z"/>
<path d="M3740 1615 c-7 -9 -11 -17 -9 -20 3 -2 10 5 17 15 14 24 10 26 -8 5z"/>
<path d="M3799 1618 c-1 -7 -2 -22 -2 -33 1 -18 0 -18 -12 -2 -13 18 -31 24
-20 7 3 -5 -2 -10 -12 -10 -14 0 -12 -3 7 -14 28 -14 50 -4 45 22 -1 9 2 20 7
23 6 4 6 9 -1 13 -6 4 -12 1 -12 -6z"/>
<path d="M3600 1610 c0 -5 7 -7 15 -4 8 4 15 8 15 10 0 2 -7 4 -15 4 -8 0 -15
-4 -15 -10z"/>
<path d="M3530 1602 c0 -7 -7 -12 -16 -12 -8 0 -12 -5 -8 -11 4 -7 11 -6 22 5
9 8 13 19 9 22 -4 4 -7 2 -7 -4z"/>
<path d="M3560 1602 c0 -5 6 -15 14 -21 12 -10 14 -9 12 5 -3 19 -26 33 -26
16z"/>
<path d="M3535 1570 c-3 -6 1 -7 9 -4 18 7 21 14 7 14 -6 0 -13 -4 -16 -10z"/>
<path d="M3619 1563 c-1 -5 -1 -12 0 -17 1 -5 -5 -4 -13 4 -13 10 -16 10 -16
-4 0 -9 5 -16 10 -16 7 0 7 -8 -1 -22 -11 -22 -11 -22 7 -6 10 10 19 29 20 43
1 23 -4 36 -7 18z"/>
<path d="M3820 1555 c0 -8 4 -15 8 -15 5 0 9 7 9 15 0 8 -4 15 -9 15 -4 0 -8
-7 -8 -15z"/>
<path d="M3650 1550 c-1 -8 -3 -23 -5 -32 -4 -24 -2 -23 25 15 13 17 17 26 8
19 -13 -10 -17 -10 -21 0 -4 10 -6 9 -7 -2z"/>
<path d="M3706 1541 c-12 -5 -15 -10 -9 -14 6 -4 16 0 23 8 14 17 13 17 -14 6z"/>
<path d="M3752 1530 c-7 -11 -16 -19 -21 -16 -4 3 -8 -1 -8 -9 0 -8 4 -15 9
-15 4 0 8 5 8 11 0 5 5 7 10 4 6 -4 8 -11 5 -16 -3 -5 1 -6 10 -3 14 6 14 8
-2 21 -14 12 -15 14 -2 10 9 -3 22 -1 30 5 11 8 11 9 -3 4 -10 -3 -18 1 -20
10 -2 11 -6 10 -16 -6z"/>
<path d="M3825 1514 c-20 -16 -20 -16 2 -9 12 3 31 1 43 -5 17 -9 20 -8 20 7
1 17 1 17 14 0 9 -12 16 -14 21 -8 3 6 1 11 -5 11 -6 0 -9 4 -6 9 7 10 -13 9
-31 -2 -6 -4 -14 -3 -18 3 -8 13 -16 12 -40 -6z"/>
<path d="M4180 1515 c-11 -13 -10 -14 4 -9 9 3 16 10 16 15 0 13 -6 11 -20 -6z"/>
<path d="M4704 1519 c-3 -5 -9 -7 -13 -5 -4 3 -8 -1 -8 -9 0 -8 4 -15 9 -15 4
0 8 5 8 11 0 5 5 7 10 4 6 -4 8 -11 5 -16 -3 -5 1 -6 10 -3 14 6 14 8 -2 21
-14 12 -15 14 -2 10 9 -3 22 -2 28 3 9 5 4 8 -13 8 -15 0 -29 -5 -32 -9z"/>
<path d="M4785 1514 c-20 -16 -20 -16 2 -9 12 3 31 1 43 -5 17 -9 20 -8 20 7
1 17 1 17 14 0 9 -12 16 -14 21 -8 3 6 1 11 -5 11 -6 0 -9 4 -6 9 7 10 -13 9
-31 -2 -6 -4 -14 -3 -18 3 -8 13 -16 12 -40 -6z"/>
<path d="M3666 1505 c-3 -8 -1 -15 4 -15 6 0 10 7 10 15 0 8 -2 15 -4 15 -2 0
-6 -7 -10 -15z"/>
<path d="M4080 1513 c0 -15 18 -35 23 -27 3 5 -1 15 -9 22 -8 7 -14 9 -14 5z"/>
<path d="M4121 1502 c0 -10 3 -12 5 -5 3 7 12 9 20 6 8 -3 14 -1 14 4 0 5 -9
9 -20 10 -13 1 -20 -4 -19 -15z"/>
<path d="M4626 1505 c-3 -8 -1 -15 4 -15 6 0 10 7 10 15 0 8 -2 15 -4 15 -2 0
-6 -7 -10 -15z"/>
<path d="M3966 1484 c-4 -11 -2 -15 8 -11 8 3 17 1 20 -6 3 -9 5 -8 5 1 1 7 5
11 9 8 5 -3 9 1 9 9 0 11 -4 12 -14 4 -9 -8 -13 -8 -13 0 0 17 -17 13 -24 -5z"/>
<path d="M4926 1484 c-4 -10 -1 -14 6 -12 15 5 23 28 10 28 -5 0 -13 -7 -16
-16z"/>
<path d="M3625 1480 c-11 -5 -15 -9 -10 -9 6 -1 16 -15 24 -31 11 -26 15 -29
28 -18 13 11 12 13 -7 22 -14 6 -20 16 -17 28 3 10 4 18 4 17 -1 0 -11 -4 -22
-9z"/>
<path d="M3805 1480 c-4 -6 -11 -7 -17 -4 -6 4 -8 2 -5 -4 4 -5 16 -8 27 -5
11 3 17 9 14 14 -7 12 -11 11 -19 -1z"/>
<path d="M3866 1478 c5 -8 2 -9 -9 -5 -10 3 -17 3 -17 -2 0 -4 -10 -13 -22
-20 -13 -6 -16 -10 -6 -7 9 3 19 2 22 -2 11 -10 36 -11 36 0 0 6 -7 8 -15 4
-8 -3 -15 -2 -15 3 0 5 9 11 20 14 15 4 20 0 20 -15 0 -11 4 -16 11 -13 6 4 8
14 5 22 -3 8 -2 11 3 8 5 -3 13 0 17 7 4 7 4 10 0 6 -5 -4 -19 -3 -33 3 -18 6
-22 6 -17 -3z"/>
<path d="M4170 1480 c0 -5 5 -10 11 -10 5 0 7 5 4 10 -3 6 -8 10 -11 10 -2 0
-4 -4 -4 -10z"/>
<path d="M4765 1480 c-4 -6 -11 -7 -17 -4 -6 4 -8 2 -5 -4 4 -5 16 -8 27 -5
11 3 17 9 14 14 -7 12 -11 11 -19 -1z"/>
<path d="M4826 1478 c5 -8 2 -9 -9 -5 -10 3 -17 3 -17 -2 0 -4 -10 -13 -22
-20 -13 -6 -16 -10 -6 -7 9 3 19 2 22 -2 11 -10 36 -11 36 0 0 6 -7 8 -15 4
-8 -3 -15 -2 -15 3 0 5 9 11 20 14 15 4 20 0 20 -15 0 -11 4 -16 11 -13 6 4 8
14 5 22 -3 8 -2 11 3 8 5 -3 13 0 17 7 4 7 4 10 0 6 -5 -4 -19 -3 -33 3 -18 6
-22 6 -17 -3z"/>
<path d="M3710 1466 c7 -7 13 -7 20 0 6 6 3 10 -10 10 -13 0 -16 -4 -10 -10z"/>
<path d="M4670 1466 c7 -7 13 -7 20 0 6 6 3 10 -10 10 -13 0 -16 -4 -10 -10z"/>
<path d="M3749 1463 c-1 -5 -2 -17 -3 -27 -1 -27 -23 -31 -31 -7 -3 12 -11 21
-16 21 -14 0 -6 -24 14 -38 9 -7 15 -18 12 -23 -4 -5 -1 -9 4 -9 6 0 11 7 11
16 0 10 6 14 15 11 21 -9 29 11 11 29 -9 9 -14 20 -11 25 4 5 4 9 1 9 -3 0 -7
-3 -7 -7z"/>
<path d="M4120 1466 c0 -2 8 -10 18 -17 15 -13 16 -12 3 4 -13 16 -21 21 -21
13z"/>
<path d="M4211 1454 c0 -11 3 -14 6 -6 3 7 2 16 -1 19 -3 4 -6 -2 -5 -13z"/>
<path d="M4709 1463 c-1 -5 -2 -17 -3 -27 -1 -27 -23 -31 -31 -7 -3 12 -11 21
-16 21 -14 0 -6 -24 14 -38 9 -7 15 -18 12 -23 -4 -5 -1 -9 4 -9 6 0 11 7 11
16 0 10 6 14 15 11 21 -9 29 11 11 29 -9 9 -14 20 -11 25 4 5 4 9 1 9 -3 0 -7
-3 -7 -7z"/>
<path d="M4005 1450 c-4 -7 2 -9 19 -4 17 4 26 2 26 -6 0 -6 -5 -8 -12 -4 -6
4 -8 3 -4 -4 3 -5 3 -12 -1 -15 -5 -2 -2 -2 4 -1 7 2 17 -5 22 -14 6 -9 11
-12 11 -6 0 6 -3 14 -7 18 -4 4 -8 15 -8 24 0 19 -40 29 -50 12z"/>
<path d="M4166 1443 c-6 -14 -5 -15 5 -6 7 7 10 15 7 18 -3 3 -9 -2 -12 -12z"/>
<path d="M3526 1437 c3 -10 9 -15 12 -12 3 3 0 11 -7 18 -10 9 -11 8 -5 -6z"/>
<path d="M3572 1433 c8 -11 14 -11 27 -1 9 7 18 14 20 15 3 2 -9 3 -27 1 -24
-2 -29 -5 -20 -15z"/>
<path d="M4100 1428 c-10 -21 -10 -21 3 -6 8 10 18 14 22 10 5 -4 5 -1 1 6
-10 17 -14 15 -26 -10z"/>
<path d="M4613 1435 c0 -8 4 -15 9 -15 4 0 8 4 8 9 0 6 -4 12 -8 15 -5 3 -9
-1 -9 -9z"/>
<path d="M3975 1430 c-3 -5 -12 -7 -19 -4 -8 3 -17 1 -20 -4 -3 -5 2 -9 12 -8
9 0 16 -5 15 -11 -2 -7 2 -13 8 -13 6 0 9 6 6 14 -3 7 0 19 6 25 6 6 8 11 5
11 -4 0 -9 -4 -13 -10z"/>
<path d="M3809 1415 c-5 -19 -3 -31 6 -37 19 -14 27 -8 11 8 -9 8 -14 20 -11
25 4 5 4 9 1 9 -3 0 -7 -2 -7 -5z"/>
<path d="M3846 1411 c-8 -12 4 -41 16 -41 6 0 5 6 -2 15 -6 8 -9 19 -5 25 3 5
4 10 1 10 -3 0 -7 -4 -10 -9z"/>
<path d="M4116 1412 c-3 -5 1 -9 9 -9 8 0 12 4 9 9 -3 4 -7 8 -9 8 -2 0 -6 -4
-9 -8z"/>
<path d="M4176 1403 c-10 -25 -7 -27 12 -10 17 16 18 15 16 -12 -1 -16 -5 -34
-8 -40 -4 -6 -1 -9 7 -5 21 8 17 76 -5 80 -9 1 -19 -5 -22 -13z"/>
<path d="M4769 1415 c-5 -19 -3 -31 6 -37 19 -14 27 -8 11 8 -9 8 -14 20 -11
25 4 5 4 9 1 9 -3 0 -7 -2 -7 -5z"/>
<path d="M4806 1411 c-8 -12 4 -41 16 -41 6 0 5 6 -2 15 -6 8 -9 19 -5 25 3 5
4 10 1 10 -3 0 -7 -4 -10 -9z"/>
<path d="M3658 1391 c-15 -15 -14 -16 17 -17 21 0 32 4 31 13 -3 18 -16 29
-16 12 0 -9 -3 -10 -8 -3 -5 8 -12 6 -24 -5z"/>
<path d="M4650 1401 c0 -7 -4 -9 -10 -6 -5 3 -10 2 -10 -3 0 -6 7 -13 16 -16
22 -8 23 -8 20 9 -3 19 -16 32 -16 16z"/>
<path d="M3877 1389 c7 -9 10 -19 6 -22 -3 -4 1 -7 10 -7 10 0 17 8 17 17 0 9
-3 13 -7 10 -3 -4 -13 -1 -22 6 -14 10 -14 10 -4 -4z"/>
<path d="M3927 1394 c-10 -10 -9 -26 2 -20 5 3 14 -1 20 -8 10 -11 5 -22 -20
-50 -29 -34 -30 -36 -9 -36 12 0 18 4 15 10 -9 15 14 40 30 34 8 -3 11 -12 8
-20 -3 -8 -9 -12 -13 -9 -8 5 -24 -25 -17 -31 2 -2 12 -5 23 -7 10 -1 20 -7
21 -12 0 -6 -4 -8 -10 -6 -7 2 -21 5 -32 8 -17 4 -17 2 3 -9 12 -8 21 -16 18
-19 -2 -2 8 -4 23 -4 23 0 27 4 23 23 -2 12 -8 23 -13 23 -5 1 -13 2 -18 3
-21 3 -21 15 -1 26 16 8 19 15 11 24 -6 7 -7 17 -3 21 4 5 1 5 -6 1 -8 -5 -13
-3 -11 5 3 26 -1 40 -10 34 -6 -3 -14 2 -18 10 -5 9 -12 12 -16 9z"/>
<path d="M4017 1386 c-4 -10 -13 -13 -24 -10 -10 3 -5 -3 11 -14 17 -12 35
-18 40 -14 6 4 1 8 -12 10 -19 3 -21 6 -11 18 6 8 10 17 7 20 -3 3 -8 -2 -11
-10z"/>
<path d="M4150 1391 c0 -5 -8 -12 -17 -14 -16 -4 -15 -5 1 -6 20 -1 20 -1 0
-16 -17 -14 -17 -14 10 -3 15 7 24 14 18 16 -6 2 -8 10 -5 18 3 8 2 14 -1 14
-3 0 -6 -4 -6 -9z"/>
<path d="M4837 1389 c7 -9 10 -19 6 -22 -3 -4 1 -7 10 -7 10 0 17 8 17 17 0 9
-3 13 -7 10 -3 -4 -13 -1 -22 6 -14 10 -14 10 -4 -4z"/>
<path d="M4887 1394 c-10 -10 -9 -26 2 -20 5 3 14 -1 20 -8 10 -11 5 -22 -20
-50 -28 -33 -29 -36 -10 -36 13 0 19 5 15 13 -7 20 18 38 36 27 13 -8 12 -10
-2 -10 -10 0 -18 -4 -18 -9 0 -5 -3 -16 -6 -24 -3 -9 3 -16 15 -20 14 -3 19
-1 14 6 -14 22 -11 33 8 33 11 0 19 -5 19 -10 0 -5 3 -6 7 -3 3 4 -4 18 -16
31 -12 13 -21 27 -20 32 4 21 -2 34 -15 34 -8 0 -16 5 -18 11 -2 5 -7 7 -11 3z"/>
<path d="M3586 1371 c-4 -5 0 -12 6 -15 9 -3 5 -12 -12 -26 -14 -13 -26 -17
-28 -11 -5 16 -22 14 -22 -2 0 -17 30 -18 50 -3 44 32 90 41 73 13 -4 -7 -9
-21 -10 -32 -3 -18 -2 -19 8 -2 6 9 15 14 21 11 7 -4 8 -2 4 4 -4 8 0 12 11
12 12 0 7 7 -17 22 -19 12 -39 27 -43 33 -5 6 -6 2 -3 -8 4 -12 2 -17 -6 -14
-7 2 -12 10 -10 16 2 13 -14 15 -22 2z"/>
<path d="M3785 1359 c-4 -6 -4 -13 -1 -16 3 -4 6 -1 6 6 0 8 6 11 16 7 8 -3
12 -2 9 4 -8 13 -22 13 -30 -1z"/>
<path d="M4065 1360 c-3 -5 -1 -10 4 -10 6 0 11 5 11 10 0 6 -2 10 -4 10 -3 0
-8 -4 -11 -10z"/>
<path d="M4745 1359 c-4 -6 -4 -13 -1 -16 3 -4 6 -1 6 6 0 8 6 11 16 7 8 -3
12 -2 9 4 -8 13 -22 13 -30 -1z"/>
<path d="M3840 1350 c-9 -6 -10 -10 -3 -10 6 0 15 5 18 10 8 12 4 12 -15 0z"/>
<path d="M3925 1350 c-3 -6 1 -7 9 -4 18 7 21 14 7 14 -6 0 -13 -4 -16 -10z"/>
<path d="M4800 1350 c-9 -6 -10 -10 -3 -10 6 0 15 5 18 10 8 12 4 12 -15 0z"/>
<path d="M4885 1350 c-3 -6 1 -7 9 -4 18 7 21 14 7 14 -6 0 -13 -4 -16 -10z"/>
<path d="M3708 1343 c6 -2 10 -8 8 -12 -3 -4 1 -8 9 -8 11 0 12 4 4 14 -6 7
-17 13 -23 12 -7 0 -6 -2 2 -6z"/>
<path d="M4613 1335 c0 -9 10 -15 24 -15 22 0 23 2 9 15 -8 8 -19 15 -24 15
-5 0 -9 -7 -9 -15z"/>
<path d="M4668 1343 c6 -2 10 -8 8 -12 -3 -4 1 -8 9 -8 11 0 12 4 4 14 -6 7
-17 13 -23 12 -7 0 -6 -2 2 -6z"/>
<path d="M4010 1333 c5 -2 8 -8 5 -13 -3 -4 2 -13 10 -20 10 -9 15 -9 15 -1 0
6 -4 11 -10 11 -5 0 -9 5 -7 11 1 6 -4 13 -11 15 -7 1 -8 0 -2 -3z"/>
<path d="M3790 1319 c0 -5 7 -9 16 -9 9 0 12 -5 8 -12 -4 -7 -3 -8 4 -4 18 11
14 23 -8 29 -11 3 -20 1 -20 -4z"/>
<path d="M4096 1313 c-6 -14 -5 -15 5 -6 7 7 10 15 7 18 -3 3 -9 -2 -12 -12z"/>
<path d="M4160 1318 c0 -10 4 -18 8 -18 7 0 8 -34 2 -50 -1 -3 -2 -8 -1 -12 1
-8 -14 -12 -37 -9 -8 1 -20 -3 -27 -9 -11 -9 -16 -7 -25 9 -14 27 -33 27 -25
0 5 -15 2 -22 -14 -26 -12 -3 -21 -13 -20 -22 0 -10 2 -11 6 -3 2 6 9 12 14
12 6 0 7 -4 4 -10 -3 -5 -1 -10 4 -10 6 0 11 9 11 19 0 23 16 36 25 21 4 -6
12 -7 18 -3 23 14 37 11 37 -7 0 -10 -5 -20 -11 -22 -7 -2 -6 -8 4 -16 12 -10
15 -10 14 0 -1 35 4 59 12 54 9 -6 35 43 27 52 -3 2 -1 14 5 25 7 13 8 17 1
13 -6 -4 -15 2 -21 11 -10 17 -10 17 -11 1z"/>
<path d="M4750 1319 c0 -5 7 -9 16 -9 9 0 12 -5 8 -12 -4 -7 -3 -8 4 -4 18 11
14 23 -8 29 -11 3 -20 1 -20 -4z"/>
<path d="M3581 1296 c-8 -10 -9 -16 -1 -21 5 -3 10 1 10 10 0 9 5 13 10 10 6
-3 10 -1 10 4 0 15 -15 14 -29 -3z"/>
<path d="M4100 1289 c-14 -12 -18 -19 -8 -16 10 4 18 -1 21 -14 5 -19 37 -27
37 -9 0 6 0 12 0 15 0 3 -3 5 -7 4 -5 -1 -7 -5 -5 -10 1 -5 -3 -9 -9 -9 -7 0
-8 11 -4 30 8 35 7 36 -25 9z"/>
<path d="M3746 1289 c2 -4 0 -10 -6 -14 -12 -8 -13 -42 -1 -49 4 -3 6 6 3 19
-3 17 1 27 12 31 20 8 21 21 1 21 -8 0 -12 -4 -9 -8z"/>
<path d="M3787 1280 c4 -15 2 -19 -10 -14 -8 3 -18 0 -22 -6 -4 -6 -1 -11 6
-9 30 4 41 -1 35 -16 -3 -8 -1 -15 4 -15 6 0 10 4 10 9 0 5 3 18 6 28 5 15 4
15 -5 3 -9 -12 -11 -10 -11 13 0 15 -4 27 -9 27 -5 0 -7 -9 -4 -20z"/>
<path d="M3856 1285 c4 -8 8 -15 10 -15 2 0 4 7 4 15 0 8 -4 15 -10 15 -5 0
-7 -7 -4 -15z"/>
<path d="M4706 1289 c2 -4 0 -10 -6 -14 -12 -8 -13 -42 -1 -49 4 -3 6 6 3 19
-3 17 1 27 12 31 20 8 21 21 1 21 -8 0 -12 -4 -9 -8z"/>
<path d="M4747 1280 c4 -15 2 -19 -10 -14 -8 3 -18 0 -22 -6 -4 -6 -1 -11 6
-9 30 4 41 -1 35 -16 -3 -8 -1 -15 4 -15 6 0 10 4 10 9 0 5 3 18 6 28 5 15 4
15 -5 3 -9 -12 -11 -10 -11 13 0 15 -4 27 -9 27 -5 0 -7 -9 -4 -20z"/>
<path d="M4816 1285 c4 -8 8 -15 10 -15 2 0 4 7 4 15 0 8 -4 15 -10 15 -5 0
-7 -7 -4 -15z"/>
<path d="M4205 1280 c3 -5 8 -10 11 -10 2 0 4 5 4 10 0 6 -5 10 -11 10 -5 0
-7 -4 -4 -10z"/>
<path d="M4050 1269 c0 -5 5 -7 10 -4 6 3 10 8 10 11 0 2 -4 4 -10 4 -5 0 -10
-5 -10 -11z"/>
<path d="M3645 1260 c-4 -6 -10 -8 -15 -5 -5 3 -12 0 -16 -6 -5 -8 -3 -9 6 -4
10 6 12 4 7 -7 -4 -11 2 -17 21 -21 23 -4 24 -3 10 7 -12 9 -14 17 -7 29 11
18 5 24 -6 7z"/>
<path d="M3685 1260 c-3 -5 1 -10 10 -10 9 0 13 5 10 10 -3 6 -8 10 -10 10 -2
0 -7 -4 -10 -10z"/>
<path d="M3833 1255 c0 -9 11 -18 24 -21 13 -4 23 -12 23 -20 0 -7 11 -16 24
-20 14 -3 27 -13 29 -22 4 -14 5 -14 6 1 1 11 -7 21 -19 24 -11 3 -17 9 -15
14 3 4 -2 12 -11 17 -10 5 -14 14 -9 21 4 8 22 -4 52 -36 42 -44 43 -45 16 -8
-17 22 -28 45 -26 51 5 14 -34 11 -49 -4 -9 -9 -16 -8 -28 3 -15 13 -17 13
-17 0z"/>
<path d="M4645 1260 c-3 -5 1 -10 10 -10 9 0 13 5 10 10 -3 6 -8 10 -10 10 -2
0 -7 -4 -10 -10z"/>
<path d="M4027 1239 c7 -9 10 -19 6 -22 -3 -4 -1 -7 5 -7 17 0 15 16 -5 31
-16 12 -17 12 -6 -2z"/>
<path d="M3682 1224 c10 -10 20 -16 22 -13 3 3 -5 11 -17 18 -21 13 -21 12 -5
-5z"/>
<path d="M4642 1224 c10 -10 20 -16 22 -13 3 3 -5 11 -17 18 -21 13 -21 12 -5
-5z"/>
<path d="M3830 1220 c0 -6 7 -10 15 -10 8 0 15 2 15 4 0 2 -7 6 -15 10 -8 3
-15 1 -15 -4z"/>
<path d="M4790 1220 c0 -6 7 -10 15 -10 8 0 15 2 15 4 0 2 -7 6 -15 10 -8 3
-15 1 -15 -4z"/>
<path d="M3720 1210 c0 -5 5 -10 11 -10 5 0 7 5 4 10 -3 6 -8 10 -11 10 -2 0
-4 -4 -4 -10z"/>
<path d="M4190 1210 c18 -12 30 -13 30 -2 0 4 -10 9 -22 9 -18 2 -20 0 -8 -7z"/>
<path d="M4680 1210 c0 -5 5 -10 11 -10 5 0 7 5 4 10 -3 6 -8 10 -11 10 -2 0
-4 -4 -4 -10z"/>
<path d="M3626 1203 c13 -9 15 -43 2 -43 -4 0 -8 8 -8 18 0 14 -2 15 -10 2
-14 -22 -12 -27 11 -33 17 -5 19 -9 10 -26 -9 -17 -8 -20 8 -18 16 1 17 5 10
25 -12 31 -11 35 3 26 7 -5 8 -3 2 7 -5 8 -9 20 -9 28 0 8 -7 16 -15 18 -10 3
-11 2 -4 -4z"/>
<path d="M3504 1188 c-6 -9 -6 -9 22 -12 11 -1 21 3 21 9 0 12 -36 15 -43 3z"/>
<path d="M3790 1190 c-9 -6 -10 -10 -3 -10 6 0 15 5 18 10 8 12 4 12 -15 0z"/>
<path d="M3835 1190 c3 -5 8 -10 11 -10 2 0 4 5 4 10 0 6 -5 10 -11 10 -5 0
-7 -4 -4 -10z"/>
<path d="M4750 1190 c-9 -6 -10 -10 -3 -10 6 0 15 5 18 10 8 12 4 12 -15 0z"/>
<path d="M4795 1190 c3 -5 8 -10 11 -10 2 0 4 5 4 10 0 6 -5 10 -11 10 -5 0
-7 -4 -4 -10z"/>
<path d="M3889 1157 c6 -25 11 -31 28 -29 12 2 24 -2 28 -8 6 -9 -13 -13 -67
-13 -9 0 -14 -5 -12 -11 2 -6 -2 -20 -10 -31 -15 -20 -15 -20 -30 0 -8 11 -16
15 -16 9 0 -6 7 -17 15 -24 11 -9 18 -9 33 2 11 7 20 16 21 21 0 4 4 7 9 6 4
-1 6 -5 4 -11 -1 -5 2 -7 7 -4 5 4 12 2 16 -4 3 -5 -1 -10 -9 -10 -9 0 -16 -4
-16 -10 0 -5 7 -7 15 -4 8 4 15 1 15 -5 0 -6 -4 -11 -10 -11 -5 0 -7 -7 -4
-15 8 -20 -6 -19 -23 3 -8 9 -11 11 -8 4 4 -8 -1 -19 -11 -27 -12 -9 -14 -14
-6 -15 7 0 10 -5 7 -11 -5 -7 -13 -5 -25 6 -14 13 -20 14 -26 3 -4 -7 -3 -10
1 -5 5 4 20 -3 33 -15 14 -13 22 -17 18 -10 -4 6 -4 12 1 13 4 0 18 2 31 3 14
2 21 -2 18 -9 -2 -6 2 -12 9 -12 7 0 12 7 10 16 -1 9 2 21 7 28 5 7 6 22 2 35
-4 13 -7 28 -6 34 1 7 -4 14 -13 18 -23 8 -18 25 10 36 14 5 25 14 25 19 0 12
-37 24 -50 16 -6 -4 -10 5 -10 19 0 14 -4 27 -9 30 -4 3 -5 -9 -2 -27z m51
-162 c0 -8 -9 -19 -19 -24 -14 -8 -22 -7 -32 6 -11 13 -11 15 -1 9 16 -9 44
12 35 27 -3 6 -1 7 5 3 7 -4 12 -14 12 -21z"/>
<path d="M3696 1168 c5 -8 2 -9 -10 -5 -14 6 -15 3 -6 -13 6 -11 13 -20 16
-20 3 0 3 4 -1 9 -3 6 2 14 11 19 15 8 15 10 0 15 -12 5 -15 3 -10 -5z"/>
<path d="M3752 1175 c4 -5 3 -14 -3 -22 -6 -7 -8 -13 -4 -13 5 0 -2 -8 -14
-19 -21 -18 -21 -19 -1 -24 11 -3 17 -1 14 4 -3 6 0 16 6 24 7 8 9 15 4 15 -5
0 -2 4 6 10 9 5 19 5 27 -2 9 -7 13 -7 13 1 0 7 4 10 9 6 5 -3 12 -1 16 4 3 6
-4 8 -16 6 -12 -2 -31 1 -43 7 -11 6 -18 7 -14 3z"/>
<path d="M4100 1171 c0 -7 -4 -9 -10 -6 -5 3 -10 1 -10 -4 0 -6 4 -11 9 -11
13 0 25 20 17 27 -3 4 -6 1 -6 -6z"/>
<path d="M4655 1171 c3 -5 -1 -11 -7 -14 -10 -3 -10 -8 1 -18 8 -8 11 -9 7 -2
-3 6 1 16 10 21 15 8 15 10 0 15 -10 4 -15 3 -11 -2z"/>
<path d="M4712 1175 c4 -5 3 -14 -3 -22 -6 -7 -8 -13 -4 -13 5 0 -2 -8 -14
-19 -21 -18 -21 -19 -1 -24 11 -3 17 -1 14 4 -3 6 0 16 6 24 7 8 9 15 4 15 -5
0 -2 4 6 10 9 5 19 5 27 -2 9 -7 13 -7 13 1 0 7 4 10 9 6 5 -3 12 -1 16 4 3 6
-4 8 -16 6 -12 -2 -31 1 -43 7 -11 6 -18 7 -14 3z"/>
<path d="M3840 1158 c0 -6 -7 -19 -16 -29 -16 -18 -11 -44 7 -33 5 3 7 10 3
15 -8 13 31 50 42 41 4 -4 4 -1 0 6 -9 15 -36 16 -36 0z"/>
<path d="M4165 1161 c-3 -5 -2 -12 3 -15 5 -3 9 1 9 9 0 17 -3 19 -12 6z"/>
<path d="M4198 1163 c0 -5 -2 -15 -2 -23 -1 -8 -7 -14 -14 -12 -7 1 -12 -5
-12 -13 0 -13 -4 -14 -22 -5 -20 9 -21 9 -7 -2 9 -7 14 -19 12 -25 -3 -7 0
-13 7 -13 6 0 8 5 5 10 -3 6 1 10 10 10 9 0 14 4 10 9 -10 17 12 21 25 6 16
-19 26 -19 33 -1 4 10 1 13 -8 10 -24 -9 -38 6 -23 24 11 13 11 14 -1 7 -11
-6 -13 -4 -8 8 3 10 4 17 2 17 -3 0 -6 -3 -7 -7z"/>
<path d="M4800 1158 c0 -6 -7 -19 -16 -29 -16 -18 -11 -44 7 -33 5 3 7 10 3
15 -8 13 31 50 42 41 4 -4 4 -1 0 6 -9 15 -36 16 -36 0z"/>
<path d="M3986 1130 c-10 -17 -15 -34 -12 -37 3 -4 6 0 6 8 0 12 2 11 11 -1 8
-12 9 -10 4 9 -5 16 -4 21 4 17 6 -4 11 0 11 9 0 13 4 14 21 4 12 -6 25 -7 30
-2 5 5 1 9 -9 9 -9 1 -24 4 -32 8 -11 4 -21 -3 -34 -24z"/>
<path d="M4235 1139 c7 -11 35 -12 35 -1 0 4 -9 8 -20 9 -11 1 -18 -2 -15 -8z"/>
<path d="M4366 1138 c3 -5 10 -6 15 -3 13 9 11 12 -6 12 -8 0 -12 -4 -9 -9z"/>
<path d="M4433 1135 c0 -8 4 -15 8 -15 5 0 5 -7 2 -17 -5 -12 -3 -14 8 -8 12
8 12 6 0 -8 -9 -11 -9 -17 -2 -17 6 0 3 -9 -6 -20 -13 -15 -19 -17 -26 -7 -5
7 -6 3 -2 -12 5 -17 4 -22 -5 -16 -8 5 -11 4 -6 -3 4 -6 13 -9 20 -6 9 3 17
-3 21 -15 7 -24 -2 -44 -16 -36 -5 4 -9 1 -9 -4 0 -16 12 -13 38 8 22 19 29
32 15 30 -20 -3 -26 2 -13 11 13 8 13 10 -2 10 -9 0 -20 5 -24 12 -5 8 -2 9
10 5 10 -4 15 -3 11 4 -4 5 -2 15 3 22 10 12 12 17 12 38 0 6 7 8 16 5 8 -3
12 -2 9 4 -5 9 7 14 27 12 3 -1 9 5 12 14 4 11 2 12 -13 4 -15 -7 -20 -6 -25
6 -5 13 -9 14 -21 4 -11 -9 -19 -10 -28 -1 -10 8 -14 7 -14 -4z m57 -10 c0 -8
-7 -15 -16 -15 -14 0 -14 3 -4 15 7 8 14 15 16 15 2 0 4 -7 4 -15z"/>
<path d="M4592 1145 c4 -4 3 -16 -2 -26 -8 -14 -6 -17 9 -16 20 1 18 32 -3 44
-6 3 -8 3 -4 -2z"/>
<path d="M3550 1129 c0 -15 18 -19 23 -6 3 8 -1 14 -9 14 -8 0 -14 -4 -14 -8z"/>
<path d="M3865 1130 c-3 -5 -1 -10 4 -10 6 0 11 5 11 10 0 6 -2 10 -4 10 -3 0
-8 -4 -11 -10z"/>
<path d="M4097 1123 c6 -16 5 -17 -12 -3 -17 14 -18 14 -7 -7 9 -17 9 -22 -4
-27 -8 -3 -12 -10 -9 -16 3 -5 -3 -10 -13 -10 -16 0 -19 5 -15 23 3 12 3 20 0
17 -3 -3 -8 -18 -11 -33 -5 -28 8 -45 19 -26 4 5 13 8 21 5 8 -3 24 -1 36 4
13 5 18 9 13 9 -6 1 -12 13 -13 27 -2 24 0 25 15 13 14 -12 14 -10 -1 14 -21
31 -28 35 -19 10z m-3 -58 c-4 -8 -8 -15 -10 -15 -2 0 -4 7 -4 15 0 8 4 15 10
15 5 0 7 -7 4 -15z"/>
<path d="M4280 1136 c0 -2 8 -10 18 -17 15 -13 16 -12 3 4 -13 16 -21 21 -21
13z"/>
<path d="M4335 1132 c-18 -13 -16 -41 5 -52 11 -6 20 -7 20 -1 0 5 -8 12 -17
15 -10 4 -13 10 -8 14 6 4 11 13 13 20 2 14 1 14 -13 4z"/>
<path d="M4825 1130 c-3 -5 -1 -10 4 -10 6 0 11 5 11 10 0 6 -2 10 -4 10 -3 0
-8 -4 -11 -10z"/>
<path d="M3667 1110 c6 -21 18 -26 28 -11 3 6 -3 15 -14 20 -16 9 -18 8 -14
-9z"/>
<path d="M3779 1113 c-8 -9 -9 -14 -2 -10 6 4 14 1 16 -5 3 -7 6 -3 6 10 1 26
-2 27 -20 5z"/>
<path d="M4627 1110 c6 -21 18 -26 28 -11 3 6 -3 15 -14 20 -16 9 -18 8 -14
-9z"/>
<path d="M4739 1113 c-8 -9 -9 -14 -2 -10 6 4 14 1 16 -5 3 -7 6 -3 6 10 1 26
-2 27 -20 5z"/>
<path d="M4255 1100 c-3 -6 1 -7 9 -4 18 7 21 14 7 14 -6 0 -13 -4 -16 -10z"/>
<path d="M4403 1090 c-1 -11 2 -20 5 -20 4 0 8 9 9 20 1 11 -2 20 -5 20 -4 0
-8 -9 -9 -20z"/>
<path d="M3580 1092 c0 -7 4 -12 9 -12 6 0 8 -9 6 -20 -6 -30 -15 -41 -27 -34
-7 4 -8 2 -4 -4 12 -20 23 -14 36 19 11 26 11 33 -4 47 -10 10 -16 12 -16 4z"/>
<path d="M4540 1092 c0 -7 4 -12 9 -12 6 0 8 -9 6 -20 -6 -30 -15 -41 -27 -34
-7 4 -8 2 -4 -4 12 -20 23 -14 36 19 11 26 11 33 -4 47 -10 10 -16 12 -16 4z"/>
<path d="M3717 1074 c5 -13 2 -15 -15 -9 -35 10 -24 -25 11 -38 10 -4 16 -11
12 -16 -3 -5 0 -13 7 -17 7 -4 10 -4 6 1 -4 4 -3 14 3 22 9 10 7 13 -7 13 -16
0 -17 2 -4 10 11 7 11 10 2 10 -7 0 -10 5 -7 10 4 6 11 8 16 5 5 -4 9 -4 9 -1
0 3 -9 10 -20 16 -16 9 -19 8 -13 -6z m-2 -32 c-3 -3 -11 0 -18 7 -9 10 -8 11
6 5 10 -3 15 -9 12 -12z"/>
<path d="M3765 1080 c-3 -5 -1 -10 4 -10 6 0 11 5 11 10 0 6 -2 10 -4 10 -3 0
-8 -4 -11 -10z"/>
<path d="M3950 1083 c0 -2 9 -14 21 -26 11 -12 20 -17 19 -12 -5 22 1 29 10
15 8 -13 10 -13 10 1 0 11 -11 18 -30 21 -16 3 -30 3 -30 1z"/>
<path d="M4677 1074 c5 -13 2 -15 -15 -9 -35 10 -24 -25 11 -38 10 -4 16 -11
12 -16 -3 -5 0 -13 7 -17 7 -4 10 -4 6 1 -4 4 -3 14 3 22 9 10 7 13 -7 13 -16
0 -17 2 -4 10 11 7 11 10 2 10 -7 0 -10 5 -7 10 4 6 11 8 16 5 5 -4 9 -4 9 -1
0 3 -9 10 -20 16 -16 9 -19 8 -13 -6z m-2 -32 c-3 -3 -11 0 -18 7 -9 10 -8 11
6 5 10 -3 15 -9 12 -12z"/>
<path d="M4725 1080 c-3 -5 -1 -10 4 -10 6 0 11 5 11 10 0 6 -2 10 -4 10 -3 0
-8 -4 -11 -10z"/>
<path d="M3645 1070 c-3 -5 -1 -10 4 -10 6 0 11 5 11 10 0 6 -2 10 -4 10 -3 0
-8 -4 -11 -10z"/>
<path d="M4270 1076 c0 -2 6 -9 13 -15 10 -8 14 -7 14 4 0 8 -6 15 -14 15 -7
0 -13 -2 -13 -4z"/>
<path d="M4480 1068 c0 -4 9 -8 20 -8 11 0 20 4 20 8 0 4 -9 8 -20 8 -11 0
-20 -4 -20 -8z"/>
<path d="M4605 1070 c-3 -5 -1 -10 4 -10 6 0 11 5 11 10 0 6 -2 10 -4 10 -3 0
-8 -4 -11 -10z"/>
<path d="M3771 1056 c-20 -11 -21 -14 -6 -20 9 -3 15 -12 12 -19 -3 -8 1 -14
9 -14 8 0 14 4 14 9 0 4 0 11 0 16 0 4 -4 7 -9 7 -5 0 -13 3 -17 8 -4 4 0 7 9
7 10 0 17 5 17 10 0 12 0 12 -29 -4z"/>
<path d="M4193 1060 c2 -8 12 -16 23 -17 13 -2 15 -1 4 4 -8 3 -19 11 -23 17
-6 7 -7 6 -4 -4z"/>
<path d="M4731 1056 c-20 -11 -21 -14 -6 -20 9 -3 15 -12 12 -19 -3 -8 1 -14
9 -14 8 0 14 4 14 9 0 4 0 11 0 16 0 4 -4 7 -9 7 -5 0 -13 3 -17 8 -4 4 0 7 9
7 10 0 17 5 17 10 0 12 0 12 -29 -4z"/>
<path d="M3621 1054 c-1 -6 7 -18 16 -25 9 -8 14 -9 10 -2 -4 6 -4 13 0 16 5
2 3 2 -4 1 -6 -2 -14 2 -17 9 -3 8 -5 8 -5 1z"/>
<path d="M3953 1042 c1 -13 10 -22 25 -25 18 -4 21 -2 10 7 -7 6 -18 17 -25
25 -10 11 -12 10 -10 -7z"/>
<path d="M4354 1048 c-3 -4 -2 -8 3 -8 4 0 1 -4 -7 -10 -9 -6 -20 -5 -30 3
-13 10 -13 10 -1 -5 14 -19 36 -13 59 15 9 11 8 14 -4 14 -8 0 -17 -4 -20 -9z"/>
<path d="M4581 1054 c-1 -6 7 -18 16 -25 9 -8 14 -9 10 -2 -4 6 -4 13 0 16 5
2 3 2 -4 1 -6 -2 -14 2 -17 9 -3 8 -5 8 -5 1z"/>
<path d="M3514 1039 c-10 -17 13 -36 27 -22 12 12 4 33 -11 33 -5 0 -12 -5
-16 -11z"/>
<path d="M4476 1042 c-2 -4 -1 -14 4 -22 7 -11 12 -12 21 -3 6 6 8 16 5 22 -8
13 -23 14 -30 3z"/>
<path d="M3607 1017 c-3 -9 -3 -16 1 -16 4 1 9 0 12 -1 22 -8 39 -6 44 6 4 11
2 13 -11 5 -12 -6 -20 -5 -28 6 -11 14 -12 14 -18 0z"/>
<path d="M3833 1015 c0 -8 4 -12 9 -9 5 3 6 10 3 15 -9 13 -12 11 -12 -6z"/>
<path d="M4040 1020 c-9 -6 -10 -10 -3 -10 6 0 15 5 18 10 8 12 4 12 -15 0z"/>
<path d="M4090 1021 c0 -5 5 -13 10 -16 6 -3 10 -2 10 4 0 5 -4 13 -10 16 -5
3 -10 2 -10 -4z"/>
<path d="M4176 1013 c5 -20 -9 -23 -23 -5 -10 13 -13 14 -11 2 4 -23 65 -80
84 -80 17 0 11 14 -7 16 -5 1 -13 2 -19 3 -5 0 -7 9 -4 19 5 14 4 15 -5 2 -7
-10 -11 -11 -11 -2 0 22 2 27 9 25 4 -1 8 4 8 12 0 8 -4 12 -8 9 -4 -2 -9 -1
-12 3 -2 5 -3 3 -1 -4z"/>
<path d="M4294 1022 c6 -11 -13 -17 -37 -13 -5 1 -6 -3 -3 -7 7 -11 56 -3 56
9 0 4 -5 11 -12 15 -7 4 -8 3 -4 -4z"/>
<path d="M4567 1017 c-3 -9 -3 -16 1 -16 4 1 9 0 12 -1 22 -8 39 -6 44 6 4 11
2 13 -11 5 -12 -6 -20 -5 -28 6 -11 14 -12 14 -18 0z"/>
<path d="M4793 1015 c0 -8 4 -12 9 -9 5 3 6 10 3 15 -9 13 -12 11 -12 -6z"/>
<path d="M4010 1001 c0 -5 5 -13 10 -16 6 -3 10 -2 10 4 0 5 -4 13 -10 16 -5
3 -10 2 -10 -4z"/>
<path d="M3535 989 c-4 -6 -4 -13 -1 -16 3 -4 6 -1 6 5 0 6 8 13 18 15 15 4
15 5 0 6 -9 0 -20 -4 -23 -10z"/>
<path d="M3670 990 c0 -5 5 -10 11 -10 5 0 8 -4 5 -9 -3 -4 6 -6 19 -3 14 2
22 8 19 13 -3 5 -9 7 -14 4 -5 -3 -11 -1 -15 5 -8 13 -25 13 -25 0z"/>
<path d="M3964 985 c1 -8 6 -18 11 -22 4 -4 5 -2 1 5 -9 15 10 16 20 0 4 -6
-2 -18 -12 -26 -12 -9 -13 -12 -4 -9 8 2 22 1 31 -4 11 -5 16 -3 16 6 0 8 -4
12 -9 9 -4 -3 -8 2 -8 10 0 9 6 13 14 10 8 -3 17 0 21 5 3 6 11 9 16 6 5 -4 9
0 9 8 0 7 -7 14 -15 14 -8 0 -12 -4 -9 -9 8 -13 -46 -13 -56 0 -10 13 -28 11
-26 -3z"/>
<path d="M4109 979 c-9 -18 -13 -19 -21 -8 -8 11 -8 9 -4 -5 5 -15 2 -17 -14
-13 -11 3 -18 1 -14 -4 3 -5 1 -9 -5 -9 -6 0 -8 -7 -5 -15 4 -8 1 -15 -5 -15
-6 0 -11 -7 -11 -15 0 -19 -10 -19 -36 -1 -17 13 -21 13 -21 1 0 -8 3 -12 7
-10 3 2 12 0 20 -6 8 -5 10 -9 4 -9 -7 0 -19 -12 -28 -27 l-17 -28 20 23 c19
22 38 31 26 12 -12 -20 22 -9 41 12 16 19 16 20 1 9 -9 -8 -20 -11 -23 -9 -3
3 6 15 20 26 14 10 22 22 19 26 -3 3 0 6 8 6 11 0 12 2 1 9 -10 6 -9 10 7 14
12 3 21 0 21 -6 1 -17 24 25 25 46 2 23 -2 22 -16 -4z"/>
<path d="M4495 989 c-4 -6 -4 -13 -1 -16 3 -4 6 -1 6 5 0 6 8 13 18 15 15 4
15 5 0 6 -9 0 -20 -4 -23 -10z"/>
<path d="M4630 990 c0 -5 5 -10 11 -10 5 0 8 -4 5 -9 -3 -4 6 -6 19 -3 14 2
22 8 19 13 -3 5 -9 7 -14 4 -5 -3 -11 -1 -15 5 -8 13 -25 13 -25 0z"/>
<path d="M3746 975 c-9 -26 -7 -32 5 -12 6 10 9 21 6 23 -2 3 -7 -2 -11 -11z"/>
<path d="M4279 978 c-1 -7 -1 -16 0 -20 0 -5 -4 -8 -11 -8 -6 0 -8 -3 -5 -7 4
-3 -1 -12 -11 -19 -14 -11 -15 -15 -3 -26 8 -8 11 -8 7 -1 -11 19 14 26 33 9
10 -9 23 -16 29 -16 6 0 14 -5 18 -12 4 -6 3 -8 -4 -4 -6 3 -14 1 -17 -5 -5
-7 -1 -10 10 -7 29 5 29 25 1 49 -20 18 -23 25 -14 36 6 8 7 13 2 12 -21 -4
-35 2 -29 11 4 6 11 7 17 4 7 -4 8 -2 4 4 -10 16 -26 15 -27 0z m18 -35 c-4
-3 0 -15 10 -25 9 -10 11 -18 6 -18 -16 0 -36 28 -28 40 3 5 9 10 12 10 4 0 3
-3 0 -7z"/>
<path d="M4375 981 c-3 -6 -1 -11 4 -11 6 0 11 -5 11 -11 0 -5 -4 -7 -10 -4
-6 3 -7 -1 -4 -10 5 -12 9 -13 20 -4 11 9 12 15 2 28 -7 9 -13 17 -14 19 -1 2
-5 -1 -9 -7z"/>
<path d="M4410 986 c0 -2 7 -7 16 -10 8 -3 12 -2 9 4 -6 10 -25 14 -25 6z"/>
<path d="M4706 975 c-9 -26 -7 -32 5 -12 6 10 9 21 6 23 -2 3 -7 -2 -11 -11z"/>
<path d="M3543 958 c-12 -15 -19 -35 -18 -55 1 -18 -2 -30 -6 -27 -13 8 -11
-10 3 -24 7 -7 8 -12 3 -12 -6 0 -10 -10 -10 -23 0 -13 5 -24 12 -24 6 0 9 6
6 14 -3 7 -1 13 5 13 5 0 12 7 16 15 3 8 0 14 -7 12 -7 -1 -11 7 -9 18 1 11 3
34 3 50 1 17 8 38 17 48 8 9 13 17 10 17 -2 0 -14 -10 -25 -22z"/>
<path d="M4210 971 c0 -5 9 -7 20 -4 11 3 20 7 20 9 0 2 -9 4 -20 4 -11 0 -20
-4 -20 -9z"/>
<path d="M4503 958 c-13 -14 -19 -32 -17 -47 4 -20 2 -22 -11 -11 -9 7 -14 19
-11 27 3 7 1 13 -4 13 -15 0 -12 -26 5 -40 8 -7 12 -16 9 -22 -3 -5 0 -15 6
-23 8 -9 8 -15 2 -15 -5 0 -8 -10 -5 -22 3 -14 1 -19 -4 -12 -12 16 -42 24
-48 13 -4 -5 -3 -9 2 -8 22 4 32 -3 27 -18 -5 -15 -4 -16 5 -3 6 8 11 11 11 5
0 -5 11 3 25 19 22 26 36 50 18 33 -7 -8 -33 11 -33 25 0 5 5 6 10 3 9 -6 15
22 11 53 -1 8 5 23 15 33 9 10 15 19 12 19 -2 0 -14 -10 -25 -22z"/>
<path d="M3652 949 c-5 -11 -11 -20 -15 -20 -25 3 -31 0 -17 -9 12 -8 12 -10
1 -10 -8 0 -11 -3 -8 -6 4 -4 14 -1 22 6 13 11 18 11 28 0 9 -9 9 -11 0 -6
-13 7 -28 -10 -15 -18 11 -6 24 4 40 32 12 22 12 23 -9 12 -20 -11 -21 -10
-15 14 8 31 -1 35 -12 5z"/>
<path d="M4337 956 c-4 -10 -1 -13 8 -9 8 3 12 9 9 14 -7 12 -11 11 -17 -5z"/>
<path d="M4612 949 c-5 -11 -11 -20 -15 -20 -25 3 -31 0 -17 -9 12 -8 12 -10
1 -10 -8 0 -11 -3 -8 -6 4 -4 14 -1 22 6 13 11 18 11 28 0 9 -9 9 -11 0 -6
-13 7 -28 -10 -15 -18 11 -6 24 4 40 32 12 22 12 23 -9 12 -20 -11 -21 -10
-15 14 8 31 -1 35 -12 5z"/>
<path d="M3586 945 c4 -8 8 -15 10 -15 2 0 4 7 4 15 0 8 -4 15 -10 15 -5 0 -7
-7 -4 -15z"/>
<path d="M3787 948 c-5 -16 10 -48 23 -48 6 0 10 5 10 11 0 5 -4 8 -9 5 -5 -3
-12 1 -15 10 -4 12 -1 14 14 9 13 -4 20 -2 20 6 0 7 -3 9 -7 6 -3 -4 -12 -2
-19 4 -8 7 -13 6 -17 -3z"/>
<path d="M4546 945 c4 -8 8 -15 10 -15 2 0 4 7 4 15 0 8 -4 15 -10 15 -5 0 -7
-7 -4 -15z"/>
<path d="M4747 948 c-5 -16 10 -48 23 -48 6 0 10 5 10 11 0 5 -4 8 -9 5 -5 -3
-12 1 -15 10 -4 12 -1 14 14 9 13 -4 20 -2 20 6 0 7 -3 9 -7 6 -3 -4 -12 -2
-19 4 -8 7 -13 6 -17 -3z"/>
<path d="M3560 941 c0 -6 4 -13 10 -16 6 -3 7 1 4 9 -7 18 -14 21 -14 7z"/>
<path d="M3753 942 c-9 -5 -6 -12 10 -21 19 -13 21 -12 10 1 -7 8 -10 18 -6
21 9 9 1 8 -14 -1z"/>
<path d="M4136 941 c-5 -8 -3 -17 5 -22 17 -11 39 -12 23 -1 -6 4 -13 14 -16
22 -3 11 -6 11 -12 1z"/>
<path d="M4520 941 c0 -6 4 -13 10 -16 6 -3 7 1 4 9 -7 18 -14 21 -14 7z"/>
<path d="M4713 942 c-9 -5 -6 -12 10 -21 19 -13 21 -12 10 1 -7 8 -10 18 -6
21 9 9 1 8 -14 -1z"/>
<path d="M4176 925 c4 -8 11 -15 16 -15 6 0 5 6 -2 15 -7 8 -14 15 -16 15 -2
0 -1 -7 2 -15z"/>
<path d="M4906 925 c-3 -8 -1 -15 4 -15 6 0 10 7 10 15 0 8 -2 15 -4 15 -2 0
-6 -7 -10 -15z"/>
<path d="M4405 920 c-4 -6 -10 -8 -15 -5 -4 3 -11 -3 -15 -13 -13 -28 -14 -42
-4 -42 5 0 9 -5 9 -11 0 -6 6 -17 14 -24 12 -12 15 -12 20 1 3 8 2 13 -3 10
-11 -7 -20 14 -13 32 3 10 9 9 26 -5 21 -18 21 -18 4 3 -10 11 -16 30 -13 42
4 24 0 28 -10 12z m-8 -34 c-7 -15 -14 -20 -19 -13 -5 8 15 34 29 37 0 0 -4
-11 -10 -24z"/>
<path d="M3693 900 c-3 -11 -15 -22 -26 -26 -21 -7 -21 -7 2 -16 13 -4 26 -6
29 -3 3 3 0 5 -8 5 -10 0 -10 3 0 15 10 12 16 13 29 3 10 -8 9 -5 -3 10 -11
12 -14 22 -8 22 6 0 13 -4 16 -9 3 -5 17 -8 31 -8 23 0 24 1 8 11 -29 20 -65
17 -70 -4z"/>
<path d="M3842 911 c-11 -6 -9 -9 6 -13 15 -4 19 -2 15 8 -6 16 -4 16 -21 5z"/>
<path d="M3901 910 c3 -28 -1 -41 -10 -35 -5 3 -12 1 -16 -5 -4 -6 -12 -5 -21
5 -24 24 -37 18 -15 -7 11 -11 18 -25 15 -30 -3 -5 -13 -1 -21 9 -8 10 -11 12
-7 4 3 -7 1 -17 -6 -21 -8 -5 -3 -9 14 -12 14 -3 23 -1 20 3 -3 5 -1 9 4 9 5
0 12 9 15 21 3 12 10 18 16 14 6 -3 9 -11 6 -16 -4 -5 -1 -9 5 -9 7 0 10 6 7
14 -3 7 -1 18 5 24 7 7 6 16 -1 29 -8 13 -11 14 -10 3z"/>
<path d="M4083 905 c-7 -21 4 -32 19 -17 9 9 9 12 -1 12 -7 0 -9 5 -6 10 3 6
4 10 0 10 -3 0 -8 -7 -12 -15z"/>
<path d="M4653 900 c-3 -11 -15 -22 -26 -26 -21 -7 -21 -7 2 -16 13 -4 26 -6
29 -3 3 3 0 5 -8 5 -10 0 -10 3 0 15 10 12 16 13 29 3 10 -8 9 -5 -3 10 -11
12 -14 22 -8 22 6 0 13 -4 16 -9 3 -5 17 -8 31 -8 23 0 24 1 8 11 -29 20 -65
17 -70 -4z"/>
<path d="M4802 911 c-11 -6 -9 -9 6 -13 15 -4 19 -2 15 8 -6 16 -4 16 -21 5z"/>
<path d="M4861 910 c3 -28 -1 -41 -10 -35 -5 3 -12 1 -16 -5 -4 -6 -12 -5 -21
5 -24 24 -37 18 -15 -7 11 -11 18 -25 15 -30 -3 -5 -13 -1 -21 9 -8 10 -11 12
-7 4 3 -7 1 -17 -6 -21 -8 -5 -3 -9 14 -12 14 -3 23 -1 20 3 -3 5 -1 9 4 9 5
0 12 9 15 21 3 12 10 18 16 14 6 -3 9 -11 6 -16 -4 -5 -1 -9 5 -9 7 0 10 6 7
14 -3 7 -1 18 5 24 7 7 6 16 -1 29 -8 13 -11 14 -10 3z"/>
<path d="M3500 900 c0 -5 5 -10 11 -10 5 0 7 5 4 10 -3 6 -8 10 -11 10 -2 0
-4 -4 -4 -10z"/>
<path d="M3554 899 c-9 -15 12 -17 30 -4 17 13 17 14 -4 12 -12 -1 -24 -5 -26
-8z"/>
<path d="M4514 899 c-9 -15 12 -17 30 -4 17 13 17 14 -4 12 -12 -1 -24 -5 -26
-8z"/>
<path d="M4147 887 c2 -4 8 -5 13 -2 4 2 21 -5 36 -17 16 -12 24 -15 17 -8
-10 11 -9 16 4 25 13 9 7 11 -30 11 -25 -1 -43 -4 -40 -9z"/>
<path d="M3733 861 c-29 -24 -29 -26 5 -28 15 0 19 1 9 4 -9 2 -15 8 -12 13 3
5 12 7 20 3 17 -6 21 -43 5 -43 -5 0 -10 -6 -10 -14 0 -9 -7 -13 -20 -11 -11
2 -20 0 -20 -4 0 -5 9 -11 20 -14 11 -3 20 -1 20 5 0 5 5 6 10 3 6 -4 8 -15 5
-25 -5 -16 -1 -18 22 -16 16 2 28 9 28 17 1 8 6 13 11 12 6 -1 11 5 11 12 0
10 -4 12 -12 5 -7 -5 -16 -6 -20 -2 -5 4 -5 2 -2 -4 4 -7 0 -14 -8 -18 -19 -7
-19 8 -1 27 13 12 13 17 0 36 -8 11 -11 21 -6 21 6 0 12 7 16 15 4 13 2 14
-14 5 -16 -9 -20 -8 -20 5 0 20 -10 19 -37 -4z m54 -56 c0 -8 -7 -15 -15 -15
-12 0 -12 3 -2 15 7 8 13 15 15 15 1 0 2 -7 2 -15z"/>
<path d="M4693 861 c-29 -24 -29 -26 5 -28 15 0 19 1 9 4 -9 2 -15 8 -12 13 3
5 12 7 20 3 17 -6 21 -43 5 -43 -5 0 -10 -6 -10 -14 0 -9 -7 -13 -20 -11 -11
2 -20 0 -20 -4 0 -5 9 -11 20 -14 11 -3 20 -1 20 5 0 5 5 6 10 3 6 -4 8 -15 5
-25 -5 -16 -1 -18 22 -16 16 2 28 9 28 17 1 8 6 13 11 12 6 -1 11 5 11 12 0
10 -4 12 -12 5 -7 -5 -16 -6 -20 -2 -5 4 -5 2 -2 -4 4 -7 0 -14 -8 -18 -19 -7
-19 8 -1 27 13 12 13 17 0 36 -8 11 -11 21 -6 21 6 0 12 7 16 15 4 13 2 14
-14 5 -16 -9 -20 -8 -20 5 0 20 -10 19 -37 -4z m54 -56 c0 -8 -7 -15 -15 -15
-12 0 -12 3 -2 15 7 8 13 15 15 15 1 0 2 -7 2 -15z"/>
<path d="M3574 859 c-4 -8 -3 -9 4 -5 7 4 12 2 12 -3 0 -6 5 -11 11 -11 13 0
7 22 -8 27 -6 2 -15 -1 -19 -8z"/>
<path d="M4067 855 c-6 -15 10 -32 20 -21 4 3 1 6 -5 6 -6 0 -9 7 -6 15 4 8 4
15 1 15 -3 0 -7 -7 -10 -15z"/>
<path d="M4155 860 c-3 -6 1 -7 9 -4 18 7 21 14 7 14 -6 0 -13 -4 -16 -10z"/>
<path d="M4264 858 c-4 -7 -3 -8 4 -4 7 4 12 1 12 -8 0 -8 -6 -16 -12 -19 -7
-3 -3 -4 8 -4 15 1 20 6 16 17 -5 13 -3 13 11 1 9 -7 17 -10 17 -6 0 9 -31 34
-42 35 -4 0 -10 -5 -14 -12z"/>
<path d="M4534 859 c-4 -8 -3 -9 4 -5 7 4 12 2 12 -3 0 -6 5 -11 11 -11 13 0
7 22 -8 27 -6 2 -15 -1 -19 -8z"/>
<path d="M3567 820 c-9 -12 -9 -13 2 -3 11 9 21 9 47 -2 18 -7 35 -11 37 -8 3
3 4 -14 2 -37 -3 -40 -15 -70 -15 -37 0 10 -6 17 -13 17 -7 0 -13 11 -12 27 0
17 -6 28 -15 29 -9 0 -10 -1 -2 -3 6 -3 12 -9 12 -14 0 -6 -4 -7 -10 -4 -5 3
-10 1 -10 -4 0 -6 4 -11 9 -11 5 0 8 -8 6 -17 -1 -10 -8 -17 -14 -15 -9 2 -9
-3 -1 -18 13 -24 22 -26 18 -4 -2 10 3 19 11 22 9 3 12 0 9 -10 -4 -10 1 -14
17 -14 14 0 26 7 28 18 3 10 1 16 -4 12 -5 -3 -9 4 -9 15 0 12 4 21 10 21 5 0
7 6 4 14 -4 10 2 12 20 9 14 -3 26 -1 26 4 0 5 -18 8 -40 8 -28 0 -39 3 -36
11 7 18 -63 12 -77 -6z"/>
<path d="M4527 820 c-9 -12 -9 -13 2 -3 11 9 21 9 47 -2 18 -7 35 -11 37 -8 3
3 4 -14 2 -37 -3 -40 -15 -70 -15 -37 0 10 -6 17 -13 17 -7 0 -13 11 -12 27 0
17 -6 28 -15 29 -9 0 -10 -1 -2 -3 6 -3 12 -9 12 -14 0 -6 -4 -7 -10 -4 -5 3
-10 1 -10 -4 0 -6 4 -11 9 -11 5 0 8 -8 6 -17 -1 -10 -8 -17 -14 -15 -9 2 -9
-3 -1 -18 13 -24 22 -26 18 -4 -2 10 3 19 11 22 9 3 12 0 9 -10 -4 -10 1 -14
17 -14 14 0 26 7 28 18 3 10 1 16 -4 12 -5 -3 -9 4 -9 15 0 12 4 21 10 21 5 0
7 6 4 14 -4 10 2 12 20 9 14 -3 26 -1 26 4 0 5 -18 8 -40 8 -28 0 -39 3 -36
11 7 18 -63 12 -77 -6z"/>
<path d="M4000 809 c0 -6 5 -19 10 -30 15 -27 3 -24 -25 7 -14 15 -25 21 -25
15 0 -7 -4 -9 -10 -6 -5 3 -23 8 -39 10 -24 3 -29 0 -24 -13 4 -9 8 -11 10 -5
2 5 14 8 28 6 16 -4 22 -11 20 -24 -5 -23 13 -35 28 -20 9 9 7 10 -8 5 -18 -7
-18 -6 -6 9 7 9 17 17 22 17 7 0 24 -39 22 -50 -1 -3 8 -7 20 -7 20 -2 20 -1
4 8 -9 6 -15 15 -11 21 4 6 10 5 15 -3 6 -9 8 -3 5 17 -2 17 -6 36 -10 43 -9
14 -26 14 -26 0z m30 -34 c0 -5 -5 -3 -10 5 -5 8 -10 20 -10 25 0 6 5 3 10 -5
5 -8 10 -19 10 -25z"/>
<path d="M4095 809 c-5 -8 -4 -10 3 -5 7 4 12 3 12 -3 0 -5 -9 -13 -20 -16
-11 -4 -17 -11 -14 -17 4 -6 15 -2 27 11 16 15 18 24 10 32 -8 8 -13 7 -18 -2z"/>
<path d="M4145 810 c-3 -6 1 -7 9 -4 18 7 21 14 7 14 -6 0 -13 -4 -16 -10z"/>
<path d="M4222 795 c-7 -15 -10 -30 -7 -35 3 -5 -1 -10 -7 -13 -7 -2 2 -4 20
-3 17 0 32 4 32 9 0 4 5 5 12 1 7 -4 8 -3 4 4 -4 6 -14 9 -24 6 -12 -4 -11 0
6 14 24 22 31 42 8 23 -11 -10 -16 -9 -23 4 -8 14 -11 12 -21 -10z m12 -31 c3
-8 2 -12 -4 -9 -6 3 -10 10 -10 16 0 14 7 11 14 -7z"/>
<path d="M4302 780 c-12 -19 -11 -20 8 -8 11 7 20 16 20 20 0 15 -15 8 -28
-12z"/>
<path d="M4419 781 c10 -18 9 -22 -14 -31 -14 -5 -25 -12 -25 -14 0 -3 8 -2
18 1 15 6 15 5 3 -10 -7 -9 -10 -17 -6 -17 4 0 1 -8 -6 -17 -13 -16 -12 -17 3
-5 10 8 17 9 20 3 2 -7 9 -7 18 -1 12 7 10 11 -10 18 -22 9 -23 11 -8 17 10 4
15 11 12 16 -3 5 0 9 6 9 16 0 8 42 -8 48 -11 3 -12 0 -3 -17z"/>
<path d="M4127 783 c-12 -11 -7 -31 9 -37 8 -3 13 -2 9 3 -3 5 1 12 7 14 7 3
4 6 -7 6 -17 1 -17 3 -5 11 8 5 10 10 4 10 -6 0 -14 -3 -17 -7z"/>
<path d="M4370 778 c0 -4 4 -8 9 -8 6 0 12 4 15 8 3 5 -1 9 -9 9 -8 0 -15 -4
-15 -9z"/>
<path d="M4463 773 c-7 -2 -13 -9 -13 -14 0 -6 5 -7 10 -4 6 3 10 -1 10 -9 0
-9 5 -16 11 -16 5 0 8 4 4 9 -3 5 -1 12 5 16 6 4 8 11 5 16 -7 10 -13 10 -32
2z"/>
<path d="M3869 757 c7 -7 14 -8 21 -1 6 6 2 10 -12 11 -16 2 -18 -1 -9 -10z"/>
<path d="M4829 757 c7 -7 14 -8 21 -1 6 6 2 10 -12 11 -16 2 -18 -1 -9 -10z"/>
<path d="M3703 744 c1 -11 -4 -18 -11 -16 -8 1 -11 -2 -7 -8 4 -6 15 -4 31 6
15 10 24 12 24 5 0 -6 -5 -11 -11 -11 -6 0 -9 -7 -5 -15 5 -14 -12 -21 -39
-15 -5 1 -4 -4 3 -11 18 -19 15 -29 -8 -29 -13 0 -17 -5 -14 -14 3 -8 0 -16
-8 -19 -7 -2 -3 -2 9 -1 12 2 25 0 28 -6 3 -5 11 -10 17 -10 5 0 0 9 -13 21
-13 11 -18 18 -11 14 21 -11 33 4 22 26 -9 16 -7 19 10 19 11 0 20 6 20 13 0
6 3 23 7 36 5 19 3 23 -9 18 -9 -3 -20 -1 -26 5 -7 7 -10 4 -9 -8z"/>
<path d="M3896 735 c-16 -24 -16 -25 5 -25 16 0 19 -3 12 -12 -6 -7 -13 -21
-16 -30 -5 -15 -4 -16 13 -6 14 9 16 14 7 20 -11 7 -2 12 17 9 12 -2 36 19 36
33 0 6 -4 5 -9 -3 -14 -21 -62 -6 -53 17 6 16 7 16 10 0 2 -10 11 -18 19 -18
14 0 14 3 -2 20 -22 25 -19 25 -39 -5z"/>
<path d="M4663 744 c1 -11 -4 -18 -11 -16 -8 1 -11 -2 -7 -8 4 -6 15 -4 31 6
15 10 24 12 24 5 0 -6 -5 -11 -11 -11 -6 0 -9 -7 -5 -15 5 -14 -12 -21 -39
-15 -5 1 -4 -4 3 -11 18 -19 15 -29 -8 -29 -13 0 -17 -5 -14 -14 3 -8 0 -16
-8 -19 -7 -2 -3 -2 9 -1 12 2 25 0 28 -6 3 -5 11 -10 17 -10 5 0 0 9 -13 21
-13 11 -18 18 -11 14 21 -11 33 4 22 26 -9 16 -7 19 10 19 11 0 20 6 20 13 0
6 3 23 7 36 5 19 3 23 -9 18 -9 -3 -20 -1 -26 5 -7 7 -10 4 -9 -8z"/>
<path d="M4856 735 c-16 -24 -16 -25 5 -25 16 0 19 -3 12 -12 -6 -7 -13 -21
-16 -30 -5 -15 -4 -16 13 -6 14 9 16 14 7 20 -7 4 -9 8 -4 9 25 5 33 4 42 -2
6 -4 11 3 12 18 1 17 -2 21 -7 13 -5 -8 -17 -10 -34 -6 -19 5 -24 10 -18 24 6
16 7 16 10 0 2 -10 11 -18 19 -18 14 0 14 3 -2 20 -22 25 -19 25 -39 -5z"/>
<path d="M4166 744 c7 -3 10 -14 7 -24 -3 -11 -9 -17 -14 -14 -5 3 -6 -3 -2
-12 4 -11 8 -13 11 -6 2 7 8 10 13 6 16 -9 10 -21 -13 -28 -19 -5 -21 -8 -8
-16 8 -5 20 -10 25 -10 6 0 3 5 -5 10 -13 8 -13 10 2 10 9 0 19 6 21 13 4 9 8
9 15 -2 7 -10 10 -6 10 13 0 27 -13 35 -21 14 -3 -10 -8 -10 -18 1 -11 11 -11
14 -1 18 15 6 -3 34 -22 32 -8 0 -8 -2 0 -5z"/>
<path d="M4354 740 c-6 -6 -21 -12 -34 -15 -30 -6 -31 -7 -20 -41 l9 -29 -2
29 c-1 22 3 30 17 32 17 2 59 34 45 34 -3 0 -10 -5 -15 -10z"/>
<path d="M4053 709 c-2 -24 9 -30 27 -17 12 8 12 9 -2 4 -10 -3 -18 -1 -18 4
0 6 5 10 10 10 6 0 10 4 10 8 0 17 -26 8 -27 -9z"/>
<path d="M4138 723 c7 -3 16 -2 19 1 4 3 -2 6 -13 5 -11 0 -14 -3 -6 -6z"/>
<path d="M4513 723 c4 -6 0 -19 -8 -29 -13 -18 -14 -18 -10 6 4 24 4 24 -10 6
-18 -24 -3 -48 17 -28 8 8 15 9 25 1 9 -8 13 -8 13 0 0 6 -4 11 -10 11 -5 0
-7 6 -4 14 3 8 0 17 -7 22 -7 4 -10 3 -6 -3z"/>
<path d="M3501 704 c0 -11 3 -14 6 -6 3 7 2 16 -1 19 -3 4 -6 -2 -5 -13z"/>
<path d="M3845 710 c-3 -5 -2 -10 4 -10 5 0 13 5 16 10 3 6 2 10 -4 10 -5 0
-13 -4 -16 -10z"/>
<path d="M4805 710 c-3 -5 -2 -10 4 -10 5 0 13 5 16 10 3 6 2 10 -4 10 -5 0
-13 -4 -16 -10z"/>
<path d="M3750 704 c0 -6 7 -17 15 -24 8 -7 12 -17 8 -24 -3 -6 -2 -8 2 -4 5
5 10 20 11 35 2 21 1 24 -6 13 -9 -13 -11 -13 -20 0 -5 8 -10 10 -10 4z"/>
<path d="M4115 700 c3 -5 8 -10 11 -10 2 0 4 5 4 10 0 6 -5 10 -11 10 -5 0 -7
-4 -4 -10z"/>
<path d="M4240 701 c0 -5 7 -11 16 -13 13 -2 12 -7 -6 -25 -11 -13 -18 -23
-14 -23 3 0 1 -7 -6 -15 -7 -8 -20 -15 -28 -15 -13 0 -12 3 4 16 18 14 18 14
-5 3 -24 -11 -24 -12 -6 -25 18 -14 18 -14 -1 -15 -10 -1 -23 -1 -28 0 -23 4
-42 -11 -43 -36 -1 -16 1 -23 3 -16 3 7 12 9 20 6 8 -3 14 0 14 7 0 6 -4 8
-10 5 -5 -3 -10 0 -10 7 0 8 15 14 42 15 23 2 47 8 52 14 8 9 7 10 -1 5 -17
-9 -17 9 0 22 8 7 18 7 27 2 8 -6 10 -10 4 -10 -7 0 -15 -11 -18 -25 -4 -14
-11 -23 -16 -20 -8 5 -5 -33 4 -42 2 -2 10 14 18 37 l14 42 23 -20 c17 -13 21
-21 13 -26 -7 -4 -12 -2 -12 4 0 6 -5 8 -11 4 -7 -4 -8 -9 0 -17 7 -7 15 -6
25 2 8 6 16 8 18 4 3 -4 3 -2 1 6 -2 8 2 11 11 8 11 -4 13 0 11 15 -5 25 -25
49 -25 31 0 -7 5 -15 11 -19 8 -4 7 -9 -2 -15 -8 -5 -20 -2 -31 8 -18 16 -26
49 -9 38 5 -3 13 0 17 6 4 8 -3 9 -25 4 -35 -7 -38 0 -16 32 14 20 14 23 -5
33 -12 6 -20 7 -20 1z"/>
<path d="M4710 704 c0 -6 7 -17 15 -24 8 -7 12 -17 8 -24 -3 -6 -2 -8 2 -4 5
5 10 20 11 35 2 21 1 24 -6 13 -9 -13 -11 -13 -20 0 -5 8 -10 10 -10 4z"/>
<path d="M3646 685 c4 -8 10 -15 15 -15 5 0 9 7 9 15 0 8 -7 15 -15 15 -9 0
-12 -6 -9 -15z"/>
<path d="M3997 694 c7 -3 9 -13 6 -22 -4 -15 -3 -15 6 -2 15 22 14 30 -6 29
-10 0 -13 -3 -6 -5z"/>
<path d="M4606 685 c4 -8 10 -15 15 -15 5 0 9 7 9 15 0 8 -7 15 -15 15 -9 0
-12 -6 -9 -15z"/>
<path d="M4445 680 c-3 -5 -1 -10 4 -10 6 0 11 5 11 10 0 6 -2 10 -4 10 -3 0
-8 -4 -11 -10z"/>
<path d="M3932 664 c-11 -12 -9 -14 8 -14 11 0 20 4 20 9 0 17 -15 19 -28 5z"/>
<path d="M4320 671 c0 -6 4 -12 8 -15 5 -3 9 1 9 9 0 8 -4 15 -9 15 -4 0 -8
-4 -8 -9z"/>
<path d="M4892 663 c-8 -8 -11 -21 -8 -29 3 -8 0 -14 -8 -14 -8 0 -16 6 -19
13 -3 6 -4 2 -4 -9 1 -18 5 -20 22 -14 11 4 19 15 19 24 -1 9 4 16 12 16 8 0
14 4 14 9 0 17 -15 19 -28 4z"/>
<path d="M3740 655 c-7 -9 -11 -17 -9 -20 3 -2 10 5 17 15 14 24 10 26 -8 5z"/>
<path d="M3799 658 c-1 -7 -2 -22 -2 -33 1 -18 0 -18 -12 -2 -13 18 -31 24
-20 7 3 -5 -2 -10 -12 -10 -14 0 -12 -3 7 -14 28 -14 50 -4 45 22 -1 9 2 20 7
23 6 4 6 9 -1 13 -6 4 -12 1 -12 -6z"/>
<path d="M4036 641 c1 -14 3 -33 3 -41 1 -13 2 -13 11 0 7 11 10 11 10 2 0 -7
4 -10 10 -7 5 3 8 20 6 38 -2 24 -8 32 -23 33 -15 1 -19 -5 -17 -25z m24 -6
c7 -9 8 -15 2 -15 -5 0 -12 7 -16 15 -3 8 -4 15 -2 15 2 0 9 -7 16 -15z"/>
<path d="M4350 666 c0 -2 8 -10 18 -17 15 -13 16 -12 3 4 -13 16 -21 21 -21
13z"/>
<path d="M4390 653 c0 -11 5 -11 20 -3 11 6 20 12 20 13 0 2 -9 3 -20 3 -11 0
-20 -6 -20 -13z"/>
<path d="M4700 655 c-7 -9 -11 -17 -9 -20 3 -2 10 5 17 15 14 24 10 26 -8 5z"/>
<path d="M4759 658 c-1 -7 -2 -22 -2 -33 1 -18 0 -18 -12 -2 -13 18 -31 24
-20 7 3 -5 -2 -10 -12 -10 -14 0 -12 -3 7 -14 28 -14 50 -4 45 22 -1 9 2 20 7
23 6 4 6 9 -1 13 -6 4 -12 1 -12 -6z"/>
<path d="M3600 650 c0 -5 7 -7 15 -4 8 4 15 8 15 10 0 2 -7 4 -15 4 -8 0 -15
-4 -15 -10z"/>
<path d="M3967 636 c-14 -21 -15 -26 -1 -36 12 -11 13 -10 8 3 -3 8 -1 25 6
36 15 29 6 26 -13 -3z"/>
<path d="M4099 653 c-1 -5 -3 -18 -4 -29 -1 -12 -5 -25 -8 -30 -3 -5 1 -18 10
-29 14 -19 14 -19 8 8 -5 18 -3 27 5 27 9 0 10 3 1 14 -6 7 -9 21 -5 30 3 9 3
16 0 16 -3 0 -7 -3 -7 -7z"/>
<path d="M4560 650 c0 -5 7 -7 15 -4 8 4 15 8 15 10 0 2 -7 4 -15 4 -8 0 -15
-4 -15 -10z"/>
<path d="M3530 642 c0 -7 -7 -12 -16 -12 -8 0 -12 -5 -8 -11 4 -7 11 -6 22 5
9 8 13 19 9 22 -4 4 -7 2 -7 -4z"/>
<path d="M3560 642 c0 -5 6 -15 14 -21 12 -10 14 -9 12 5 -3 19 -26 33 -26 16z"/>
<path d="M4125 640 c3 -5 8 -10 11 -10 2 0 4 5 4 10 0 6 -5 10 -11 10 -5 0 -7
-4 -4 -10z"/>
<path d="M4490 641 c0 -9 -8 -11 -21 -8 -12 3 -18 3 -15 0 3 -4 1 -12 -6 -20
-6 -7 -8 -17 -4 -20 11 -11 36 -12 36 -1 0 6 -7 7 -16 4 -10 -4 -14 -1 -12 6
3 7 10 13 16 13 16 0 37 23 29 32 -4 3 -7 1 -7 -6z"/>
<path d="M4520 642 c0 -5 6 -15 14 -21 12 -10 14 -9 12 5 -3 19 -26 33 -26 16z"/>
<path d="M3893 624 c1 -17 5 -20 21 -14 22 8 34 30 16 30 -6 0 -8 -4 -5 -10 3
-5 0 -10 -9 -10 -8 0 -16 6 -19 13 -3 6 -4 2 -4 -9z"/>
<path d="M4005 632 c-6 -4 -11 -19 -12 -34 -1 -26 7 -33 31 -29 5 1 13 -4 18
-11 7 -10 9 -10 5 2 -2 8 -12 14 -21 14 -19 -2 -21 7 -3 25 10 11 9 14 -1 18
-6 3 -10 9 -6 14 6 11 3 11 -11 1z"/>
<path d="M3863 608 c-2 -18 0 -20 7 -8 12 18 13 30 2 30 -4 0 -9 -10 -9 -22z"/>
<path d="M4351 608 c12 -23 20 -24 12 -1 -5 12 -2 15 10 10 9 -3 17 -2 17 3 0
5 -11 9 -24 8 -20 -2 -23 -5 -15 -20z"/>
<path d="M4402 610 c0 -14 2 -19 5 -12 2 6 2 18 0 25 -3 6 -5 1 -5 -13z"/>
<path d="M4823 608 c-2 -18 0 -20 7 -8 12 18 13 30 2 30 -4 0 -9 -10 -9 -22z"/>
<path d="M3535 610 c-3 -6 1 -7 9 -4 18 7 21 14 7 14 -6 0 -13 -4 -16 -10z"/>
<path d="M4140 610 c-12 -7 -10 -9 7 -7 12 0 19 5 17 9 -6 10 -6 10 -24 -2z"/>
<path d="M4495 610 c-3 -6 1 -7 9 -4 18 7 21 14 7 14 -6 0 -13 -4 -16 -10z"/>
<path d="M3619 603 c-1 -5 -1 -12 0 -17 1 -5 -5 -4 -13 4 -13 10 -16 10 -16
-4 0 -9 5 -16 10 -16 7 0 7 -8 -1 -22 -11 -22 -11 -22 7 -6 10 10 19 29 20 43
1 23 -4 36 -7 18z"/>
<path d="M3820 595 c0 -8 7 -15 15 -15 8 0 15 7 15 15 0 8 -7 15 -15 15 -8 0
-15 -7 -15 -15z"/>
<path d="M4579 603 c-1 -5 -1 -12 0 -17 1 -5 -5 -4 -13 4 -13 10 -16 10 -16
-4 0 -9 5 -16 10 -16 7 0 7 -8 -1 -22 -11 -22 -11 -22 7 -6 10 10 19 29 20 43
1 23 -4 36 -7 18z"/>
<path d="M4780 595 c0 -8 7 -15 15 -15 8 0 15 7 15 15 0 8 -7 15 -15 15 -8 0
-15 -7 -15 -15z"/>
<path d="M3650 590 c-1 -8 -3 -23 -5 -32 -4 -24 -2 -23 25 15 13 17 17 26 8
19 -13 -10 -17 -10 -21 0 -4 10 -6 9 -7 -2z"/>
<path d="M3912 583 c2 -10 -1 -18 -7 -18 -5 0 -15 -4 -22 -8 -6 -4 -14 -3 -18
3 -3 5 -1 10 6 10 7 0 10 3 6 6 -3 4 -21 -3 -39 -15 -23 -16 -26 -20 -11 -16
12 3 31 1 43 -5 17 -9 20 -8 20 7 1 17 1 17 14 0 9 -12 16 -14 21 -8 3 6 1 11
-5 11 -6 0 -8 5 -5 10 5 8 11 8 20 0 9 -7 16 -6 24 4 9 10 7 16 -6 27 -16 12
-17 12 -6 -2 7 -9 10 -19 6 -22 -9 -9 -34 13 -27 24 3 5 0 9 -6 9 -6 0 -10 -8
-8 -17z"/>
<path d="M4610 590 c-1 -8 -3 -23 -5 -32 -4 -24 -2 -23 25 15 13 17 17 26 8
19 -13 -10 -17 -10 -21 0 -4 10 -6 9 -7 -2z"/>
<path d="M4872 583 c2 -10 -1 -18 -7 -18 -5 0 -15 -4 -22 -8 -6 -4 -14 -3 -18
3 -3 5 -1 10 6 10 7 0 10 3 6 6 -3 4 -21 -3 -39 -15 -23 -16 -26 -20 -11 -16
12 3 31 1 43 -5 17 -9 20 -8 20 7 1 17 1 17 14 0 9 -12 16 -14 21 -8 3 6 1 11
-5 11 -6 0 -8 5 -5 10 4 6 12 7 18 3 8 -5 8 -2 0 9 -7 8 -10 18 -6 21 3 4 1 7
-6 7 -6 0 -11 -8 -9 -17z"/>
<path d="M4907 591 c6 -7 9 -20 6 -27 -3 -8 -3 -14 0 -14 14 0 14 30 -1 41
-14 11 -15 11 -5 0z"/>
<path d="M3706 581 c-12 -5 -15 -10 -9 -14 6 -4 16 0 23 8 14 17 13 17 -14 6z"/>
<path d="M3752 570 c-7 -11 -16 -19 -21 -16 -4 3 -8 -1 -8 -9 0 -8 4 -15 9
-15 4 0 8 5 8 11 0 5 5 7 10 4 6 -4 8 -11 5 -16 -3 -5 1 -6 10 -3 14 6 14 8
-2 21 -14 12 -15 14 -2 10 9 -3 22 -1 30 5 11 8 11 9 -3 4 -10 -3 -18 1 -20
10 -2 11 -6 10 -16 -6z"/>
<path d="M4429 572 c7 -12 17 -20 22 -16 6 3 9 7 7 8 -2 1 -12 8 -22 16 -18
14 -19 14 -7 -8z"/>
<path d="M4666 581 c-12 -5 -15 -10 -9 -14 6 -4 16 0 23 8 14 17 13 17 -14 6z"/>
<path d="M4712 570 c-7 -11 -16 -19 -21 -16 -4 3 -8 -1 -8 -9 0 -8 4 -15 9
-15 4 0 8 5 8 11 0 5 5 7 10 4 6 -4 8 -11 5 -16 -3 -5 1 -6 10 -3 14 6 14 8
-2 21 -14 12 -15 14 -2 10 9 -3 22 -1 30 5 11 8 11 9 -3 4 -10 -3 -18 1 -20
10 -2 11 -6 10 -16 -6z"/>
<path d="M4404 573 c5 -8 1 -13 -10 -13 -14 0 -15 -3 -6 -12 9 -9 15 -9 24 0
9 9 9 15 -1 25 -11 10 -13 10 -7 0z"/>
<path d="M4185 560 c-3 -5 -1 -10 4 -10 6 0 11 5 11 10 0 6 -2 10 -4 10 -3 0
-8 -4 -11 -10z"/>
<path d="M4478 559 c-10 -5 -18 -14 -18 -19 0 -5 8 -7 18 -3 14 5 13 3 -3 -10
-20 -16 -19 -16 8 -15 20 2 26 6 21 18 -3 8 -7 21 -7 28 0 6 -1 12 -1 12 -1 0
-9 -5 -18 -11z"/>
<path d="M3666 545 c-3 -8 -1 -15 4 -15 6 0 10 7 10 15 0 8 -2 15 -4 15 -2 0
-6 -7 -10 -15z"/>
<path d="M4080 553 c0 -15 18 -35 23 -27 3 5 -1 15 -9 22 -8 7 -14 9 -14 5z"/>
<path d="M4523 546 c-9 -11 -9 -18 1 -31 10 -14 15 -15 21 -5 5 9 4 11 -4 6
-8 -6 -10 0 -5 18 7 29 4 31 -13 12z"/>
<path d="M4626 545 c-3 -8 -1 -15 4 -15 6 0 10 7 10 15 0 8 -2 15 -4 15 -2 0
-6 -7 -10 -15z"/>
<path d="M4340 538 c0 -4 4 -8 9 -8 6 0 12 4 15 8 3 5 -1 9 -9 9 -8 0 -15 -4
-15 -9z"/>
<path d="M3966 524 c-4 -11 -2 -15 8 -11 8 3 17 1 20 -6 3 -9 5 -8 5 1 1 7 5
11 9 8 5 -3 9 1 9 9 0 11 -4 12 -14 4 -9 -8 -13 -8 -13 0 0 17 -17 13 -24 -5z"/>
<path d="M4926 524 c-4 -10 -1 -14 6 -12 15 5 23 28 10 28 -5 0 -13 -7 -16
-16z"/>
<path d="M3625 520 c-11 -5 -15 -9 -10 -9 6 -1 16 -15 24 -31 11 -26 15 -29
28 -18 13 11 12 13 -7 22 -14 6 -20 16 -17 28 3 10 4 18 4 17 -1 0 -11 -4 -22
-9z"/>
<path d="M3805 520 c-4 -6 -11 -7 -17 -4 -6 4 -8 2 -5 -4 4 -5 16 -8 27 -5 11
3 17 9 14 14 -7 12 -11 11 -19 -1z"/>
<path d="M3866 518 c5 -8 2 -9 -9 -5 -10 3 -17 3 -17 -2 0 -4 -10 -13 -22 -20
-13 -6 -16 -10 -6 -7 9 3 19 2 22 -2 11 -10 36 -11 36 0 0 6 -7 8 -15 4 -8 -3
-15 -2 -15 3 0 5 9 11 20 14 15 4 20 0 20 -15 0 -11 4 -16 11 -13 6 4 8 14 5
22 -3 8 -2 11 3 8 5 -3 13 0 17 7 4 7 4 10 0 6 -5 -4 -19 -3 -33 3 -18 6 -22
6 -17 -3z"/>
<path d="M4155 520 c-18 -8 -17 -9 8 -9 16 -1 26 3 22 9 -3 6 -7 10 -8 9 -1 0
-11 -4 -22 -9z"/>
<path d="M4312 510 c-10 -17 -9 -21 11 -30 20 -10 20 -10 5 3 -13 10 -14 17
-6 25 6 6 10 14 7 16 -3 3 -10 -4 -17 -14z"/>
<path d="M4410 516 c0 -9 5 -16 10 -16 6 0 10 4 10 9 0 6 -4 13 -10 16 -5 3
-10 -1 -10 -9z"/>
<path d="M4585 520 c-11 -5 -15 -9 -10 -9 6 -1 16 -15 24 -31 11 -26 15 -29
28 -18 13 11 12 13 -7 22 -14 6 -20 16 -17 28 3 10 4 18 4 17 -1 0 -11 -4 -22
-9z"/>
<path d="M4765 520 c-4 -6 -11 -7 -17 -4 -6 4 -8 2 -5 -4 4 -5 16 -8 27 -5 11
3 17 9 14 14 -7 12 -11 11 -19 -1z"/>
<path d="M4826 518 c5 -8 2 -9 -9 -5 -10 3 -17 3 -17 -2 0 -4 -10 -13 -22 -20
-13 -6 -16 -10 -6 -7 9 3 19 2 22 -2 11 -10 36 -11 36 0 0 6 -7 8 -15 4 -8 -3
-15 -2 -15 3 0 5 9 11 20 14 15 4 20 0 20 -15 0 -11 4 -16 11 -13 6 4 8 14 5
22 -3 8 -2 11 3 8 5 -3 13 0 17 7 4 7 4 10 0 6 -5 -4 -19 -3 -33 3 -18 6 -22
6 -17 -3z"/>
<path d="M3710 506 c7 -7 13 -7 20 0 6 6 3 10 -10 10 -13 0 -16 -4 -10 -10z"/>
<path d="M4355 509 c-5 -8 -4 -10 3 -5 14 8 16 -6 3 -19 -5 -6 -5 -19 -2 -30
6 -16 9 -13 14 15 8 35 -5 61 -18 39z"/>
<path d="M4670 506 c7 -7 13 -7 20 0 6 6 3 10 -10 10 -13 0 -16 -4 -10 -10z"/>
<path d="M3749 503 c-1 -5 -2 -17 -3 -27 -1 -27 -23 -31 -31 -7 -3 12 -11 21
-16 21 -14 0 -6 -24 14 -38 9 -7 15 -18 12 -23 -4 -5 -1 -9 4 -9 6 0 11 7 11
16 0 10 6 14 15 11 21 -9 29 11 11 29 -9 9 -14 20 -11 25 4 5 4 9 1 9 -3 0 -7
-3 -7 -7z"/>
<path d="M4120 506 c0 -2 8 -10 18 -17 15 -13 16 -12 3 4 -13 16 -21 21 -21
13z"/>
<path d="M4210 494 c0 -8 6 -11 15 -8 8 4 15 9 15 13 0 4 -7 8 -15 8 -8 0 -15
-6 -15 -13z"/>
<path d="M4256 498 c3 -4 11 -5 19 -1 21 7 19 12 -4 10 -11 0 -18 -5 -15 -9z"/>
<path d="M4709 503 c-1 -5 -2 -17 -3 -27 -1 -27 -23 -31 -31 -7 -3 12 -11 21
-16 21 -14 0 -6 -24 14 -38 9 -7 15 -18 12 -23 -4 -5 -1 -9 4 -9 6 0 11 7 11
16 0 10 6 14 15 11 21 -9 29 11 11 29 -9 9 -14 20 -11 25 4 5 4 9 1 9 -3 0 -7
-3 -7 -7z"/>
<path d="M4005 490 c-4 -7 2 -9 19 -4 17 4 26 2 26 -6 0 -6 -5 -8 -12 -4 -6 4
-8 3 -4 -4 3 -5 3 -12 -1 -15 -5 -2 -2 -2 4 -1 7 2 17 -5 22 -14 6 -9 11 -12
11 -6 0 6 -3 14 -7 18 -4 4 -8 15 -8 24 0 19 -40 29 -50 12z"/>
<path d="M4166 483 c-6 -14 -5 -15 5 -6 7 7 10 15 7 18 -3 3 -9 -2 -12 -12z"/>
<path d="M3526 477 c3 -10 9 -15 12 -12 3 3 0 11 -7 18 -10 9 -11 8 -5 -6z"/>
<path d="M3572 473 c8 -11 14 -11 27 -1 9 7 18 14 20 15 3 2 -9 3 -27 1 -24
-2 -29 -5 -20 -15z"/>
<path d="M4100 468 c-10 -21 -10 -21 3 -6 8 10 18 14 22 10 5 -4 5 -1 1 6 -10
17 -14 15 -26 -10z"/>
<path d="M4430 479 c-13 -9 -13 -10 2 -6 9 3 19 1 22 -6 2 -7 5 -4 5 6 1 20
-7 21 -29 6z"/>
<path d="M4532 473 c8 -11 14 -11 27 -1 9 7 18 14 20 15 3 2 -9 3 -27 1 -24
-2 -29 -5 -20 -15z"/>
<path d="M3975 470 c-3 -5 -12 -7 -19 -4 -8 3 -17 1 -20 -4 -3 -5 2 -9 12 -8
9 0 16 -5 15 -11 -2 -7 2 -13 8 -13 6 0 9 6 6 14 -3 7 0 19 6 25 6 6 8 11 5
11 -4 0 -9 -4 -13 -10z"/>
<path d="M4275 470 c6 -10 4 -12 -10 -6 -15 5 -16 4 -5 -9 17 -20 1 -19 -22 2
-10 9 -18 11 -18 5 0 -5 -8 -9 -17 -8 -18 3 -33 -10 -33 -28 0 -5 6 -3 14 3
11 9 15 7 18 -7 3 -11 1 -26 -4 -35 -7 -13 -5 -15 7 -11 8 3 12 10 9 15 -3 5
2 12 11 15 12 5 13 9 4 20 -7 8 -9 17 -6 20 9 9 28 -6 22 -17 -4 -5 -1 -9 6
-9 7 0 4 -7 -7 -15 -10 -8 -14 -15 -8 -15 24 0 60 75 42 86 -7 5 -8 2 -3 -6z"/>
<path d="M3809 455 c-5 -19 -3 -31 6 -37 19 -14 27 -8 11 8 -9 8 -14 20 -11
25 4 5 4 9 1 9 -3 0 -7 -2 -7 -5z"/>
<path d="M3846 451 c-8 -12 4 -41 16 -41 6 0 5 6 -2 15 -6 8 -9 19 -5 25 3 5
4 10 1 10 -3 0 -7 -4 -10 -9z"/>
<path d="M4116 452 c-3 -5 1 -9 9 -9 8 0 12 4 9 9 -3 4 -7 8 -9 8 -2 0 -6 -4
-9 -8z"/>
<path d="M4420 446 c0 -9 6 -16 13 -16 6 -1 1 -7 -13 -15 -15 -8 -19 -14 -10
-14 24 -1 39 13 36 34 -3 23 -26 33 -26 11z"/>
<path d="M4769 455 c-5 -19 -3 -31 6 -37 19 -14 27 -8 11 8 -9 8 -14 20 -11
25 4 5 4 9 1 9 -3 0 -7 -2 -7 -5z"/>
<path d="M4806 451 c-8 -12 4 -41 16 -41 6 0 5 6 -2 15 -6 8 -9 19 -5 25 3 5
4 10 1 10 -3 0 -7 -4 -10 -9z"/>
<path d="M3658 431 c-15 -15 -14 -16 17 -17 21 0 32 4 31 13 -3 18 -16 29 -16
12 0 -9 -3 -10 -8 -3 -5 8 -12 6 -24 -5z"/>
<path d="M4286 434 c-5 -14 -4 -15 9 -4 17 14 19 20 6 20 -5 0 -12 -7 -15 -16z"/>
<path d="M4320 439 c0 -5 12 -16 26 -26 l26 -17 -22 -16 c-17 -13 -18 -17 -6
-17 9 0 16 4 16 9 0 10 33 11 46 1 5 -5 1 -1 -8 9 -10 9 -18 21 -18 28 0 6 -4
9 -9 6 -10 -6 -34 18 -26 26 3 2 -2 5 -10 5 -8 0 -15 -4 -15 -8z"/>
<path d="M4460 439 c0 -5 5 -7 10 -4 6 3 10 8 10 11 0 2 -4 4 -10 4 -5 0 -10
-5 -10 -11z"/>
<path d="M4486 434 c-9 -23 -8 -27 9 -20 18 7 20 -5 3 -22 -8 -8 -8 -12 -1
-12 16 0 25 31 13 45 -5 6 -7 15 -3 18 3 4 2 7 -4 7 -6 0 -14 -7 -17 -16z"/>
<path d="M4618 431 c-15 -15 -14 -16 17 -17 21 0 32 4 31 13 -3 18 -16 29 -16
12 0 -9 -3 -10 -8 -3 -5 8 -12 6 -24 -5z"/>
<path d="M3877 429 c7 -9 10 -19 6 -22 -3 -4 1 -7 10 -7 10 0 17 8 17 17 0 9
-3 13 -7 10 -3 -4 -13 -1 -22 6 -14 10 -14 10 -4 -4z"/>
<path d="M3927 434 c-10 -10 -9 -26 2 -20 5 3 14 -1 20 -8 10 -11 5 -22 -20
-50 -29 -34 -30 -36 -9 -36 12 0 18 4 15 10 -9 15 14 40 30 34 8 -3 11 -12 8
-20 -3 -8 -9 -12 -13 -9 -8 5 -24 -25 -17 -31 2 -2 12 -5 23 -7 10 -1 20 -7
21 -12 0 -6 -4 -8 -10 -6 -7 2 -21 5 -32 8 -17 4 -17 2 3 -9 12 -8 21 -16 18
-19 -2 -2 8 -4 23 -4 23 0 27 4 23 23 -2 12 -8 23 -13 23 -5 1 -13 2 -18 3
-21 3 -21 15 -1 26 16 8 19 15 11 24 -6 7 -7 17 -3 21 4 5 1 5 -6 1 -8 -5 -13
-3 -11 5 3 26 -1 40 -10 34 -6 -3 -14 2 -18 10 -5 9 -12 12 -16 9z"/>
<path d="M4017 426 c-4 -10 -13 -13 -24 -10 -10 3 -5 -3 11 -14 17 -12 35 -18
40 -14 6 4 1 8 -12 10 -19 3 -21 6 -11 18 6 8 10 17 7 20 -3 3 -8 -2 -11 -10z"/>
<path d="M4150 431 c0 -5 -8 -12 -17 -14 -16 -4 -15 -5 1 -6 20 -1 20 -1 0
-16 -17 -14 -17 -14 10 -3 15 7 24 14 18 16 -6 2 -8 10 -5 18 3 8 2 14 -1 14
-3 0 -6 -4 -6 -9z"/>
<path d="M4837 429 c7 -9 10 -19 6 -22 -3 -4 1 -7 10 -7 10 0 17 8 17 17 0 9
-3 13 -7 10 -3 -4 -13 -1 -22 6 -14 10 -14 10 -4 -4z"/>
<path d="M4887 434 c-10 -10 -9 -26 2 -20 5 3 14 -1 20 -8 10 -11 5 -22 -20
-50 -28 -33 -29 -36 -10 -36 13 0 19 5 15 13 -7 20 18 38 36 27 13 -8 12 -10
-2 -10 -10 0 -18 -4 -18 -9 0 -5 -3 -16 -6 -24 -3 -9 3 -16 15 -20 14 -3 19
-1 14 6 -14 22 -11 33 8 33 11 0 19 -5 19 -10 0 -5 3 -6 7 -3 3 4 -4 18 -16
31 -12 13 -21 27 -20 32 4 21 -2 34 -15 34 -8 0 -16 5 -18 11 -2 5 -7 7 -11 3z"/>
<path d="M3586 411 c-4 -5 0 -12 6 -15 9 -3 5 -12 -12 -26 -14 -13 -26 -17
-28 -11 -5 16 -22 14 -22 -2 0 -17 30 -18 50 -3 44 32 90 41 73 13 -4 -7 -9
-21 -10 -32 -3 -18 -2 -19 8 -2 6 9 15 14 21 11 7 -4 8 -2 4 4 -4 8 0 12 11
12 12 0 7 7 -17 22 -19 12 -39 27 -43 33 -5 6 -6 2 -3 -8 4 -12 2 -17 -6 -14
-7 2 -12 10 -10 16 2 13 -14 15 -22 2z"/>
<path d="M4546 411 c-4 -5 0 -12 6 -15 9 -3 5 -11 -11 -26 -17 -15 -26 -17
-31 -9 -13 20 -29 -22 -19 -48 5 -13 5 -23 0 -23 -5 0 -11 6 -14 13 -2 6 -9
-5 -16 -25 -7 -21 -18 -38 -24 -39 -15 0 32 -21 54 -24 9 -1 16 4 16 10 0 7
-10 11 -22 10 -13 -2 -22 3 -22 11 0 10 4 11 10 5 13 -13 37 5 37 26 0 10 4
11 19 3 14 -7 22 -7 26 0 4 6 3 9 -2 8 -18 -5 -51 14 -49 27 2 14 32 39 71 61
24 13 48 7 38 -9 -4 -7 -9 -21 -10 -32 -3 -18 -2 -19 8 -2 6 9 15 14 21 11 7
-4 8 -2 4 4 -4 8 0 12 11 12 12 0 7 7 -17 22 -19 12 -39 27 -43 33 -5 6 -6 2
-3 -8 4 -12 2 -17 -6 -14 -7 2 -12 10 -10 16 2 13 -14 15 -22 2z m-46 -142 c0
-5 -7 -9 -15 -9 -8 0 -15 7 -15 15 0 9 6 12 15 9 8 -4 15 -10 15 -15z"/>
<path d="M3785 399 c-4 -6 -4 -13 -1 -16 3 -4 6 -1 6 6 0 8 6 11 16 7 8 -3 12
-2 9 4 -8 13 -22 13 -30 -1z"/>
<path d="M4065 400 c-3 -5 -1 -10 4 -10 6 0 11 5 11 10 0 6 -2 10 -4 10 -3 0
-8 -4 -11 -10z"/>
<path d="M4290 391 c0 -25 6 -27 13 -6 4 8 2 17 -3 20 -6 4 -10 -3 -10 -14z"/>
<path d="M4745 399 c-4 -6 -4 -13 -1 -16 3 -4 6 -1 6 6 0 8 6 11 16 7 8 -3 12
-2 9 4 -8 13 -22 13 -30 -1z"/>
<path d="M3840 390 c-9 -6 -10 -10 -3 -10 6 0 15 5 18 10 8 12 4 12 -15 0z"/>
<path d="M3925 390 c-3 -6 1 -7 9 -4 18 7 21 14 7 14 -6 0 -13 -4 -16 -10z"/>
<path d="M4800 390 c-9 -6 -10 -10 -3 -10 6 0 15 5 18 10 8 12 4 12 -15 0z"/>
<path d="M4885 390 c-3 -6 1 -7 9 -4 18 7 21 14 7 14 -6 0 -13 -4 -16 -10z"/>
<path d="M3708 383 c6 -2 10 -8 8 -12 -3 -4 1 -8 9 -8 11 0 12 4 4 14 -6 7
-17 13 -23 12 -7 0 -6 -2 2 -6z"/>
<path d="M4431 373 c0 -11 3 -13 6 -5 2 6 10 9 15 6 7 -4 8 -2 4 4 -11 18 -26
14 -25 -5z"/>
<path d="M4668 383 c6 -2 10 -8 8 -12 -3 -4 1 -8 9 -8 11 0 12 4 4 14 -6 7
-17 13 -23 12 -7 0 -6 -2 2 -6z"/>
<path d="M4010 373 c5 -2 8 -8 5 -13 -3 -4 2 -13 10 -20 10 -9 15 -9 15 -1 0
6 -4 11 -10 11 -5 0 -9 5 -7 11 1 6 -4 13 -11 15 -7 1 -8 0 -2 -3z"/>
<path d="M4220 365 c-9 -10 -9 -15 -1 -15 6 0 11 5 11 10 0 6 4 10 10 10 5 0
8 -6 6 -12 -1 -7 -1 -10 1 -5 3 4 12 7 21 7 15 0 15 2 2 10 -21 14 -36 12 -50
-5z"/>
<path d="M3790 359 c0 -5 7 -9 16 -9 9 0 12 -5 8 -12 -4 -7 -3 -8 4 -4 18 11
14 23 -8 29 -11 3 -20 1 -20 -4z"/>
<path d="M4096 353 c-6 -14 -5 -15 5 -6 7 7 10 15 7 18 -3 3 -9 -2 -12 -12z"/>
<path d="M4160 357 c0 -9 4 -17 10 -17 5 0 7 -8 3 -17 -5 -14 -3 -15 7 -6 10
9 9 16 -4 34 -13 19 -16 20 -16 6z"/>
<path d="M4307 351 c-4 -17 -3 -21 5 -13 5 5 8 16 6 23 -3 8 -7 3 -11 -10z"/>
<path d="M4750 359 c0 -5 7 -9 16 -9 9 0 12 -5 8 -12 -4 -7 -3 -8 4 -4 18 11
14 23 -8 29 -11 3 -20 1 -20 -4z"/>
<path d="M3581 336 c-8 -10 -9 -16 -1 -21 5 -3 10 1 10 10 0 9 5 13 10 10 6
-3 10 -1 10 4 0 15 -15 14 -29 -3z"/>
<path d="M4100 329 c-14 -12 -18 -19 -8 -16 10 4 18 -1 21 -14 5 -19 37 -27
37 -9 0 6 0 12 0 15 0 3 -3 5 -7 4 -5 -1 -7 -5 -5 -10 1 -5 -3 -9 -9 -9 -7 0
-8 11 -4 30 8 35 7 36 -25 9z"/>
<path d="M4395 340 c-4 -6 -11 -7 -17 -4 -7 4 -8 2 -4 -4 4 -7 3 -12 -2 -12
-6 0 -9 -11 -8 -24 0 -13 5 -22 9 -19 5 3 6 11 3 19 -3 7 7 22 21 34 14 11 21
20 15 20 -6 0 -14 -5 -17 -10z"/>
<path d="M4443 338 c-7 -8 -8 -19 -3 -28 8 -12 10 -12 15 2 10 26 2 43 -12 26z"/>
<path d="M4541 336 c-8 -10 -9 -16 -1 -21 5 -3 10 1 10 10 0 9 5 13 10 10 6
-3 10 -1 10 4 0 15 -15 14 -29 -3z"/>
<path d="M3746 329 c2 -4 0 -10 -6 -14 -12 -8 -13 -42 -1 -49 4 -3 6 6 3 19
-3 17 1 27 12 31 20 8 21 21 1 21 -8 0 -12 -4 -9 -8z"/>
<path d="M3787 320 c4 -15 2 -19 -10 -14 -8 3 -18 0 -22 -6 -4 -6 -1 -11 6 -9
30 4 41 -1 35 -16 -3 -8 -1 -15 4 -15 6 0 10 4 10 9 0 5 3 18 6 28 5 15 4 15
-5 3 -9 -12 -11 -10 -11 13 0 15 -4 27 -9 27 -5 0 -7 -9 -4 -20z"/>
<path d="M3856 325 c4 -8 8 -15 10 -15 2 0 4 7 4 15 0 8 -4 15 -10 15 -5 0 -7
-7 -4 -15z"/>
<path d="M4200 331 c0 -5 5 -13 10 -16 6 -3 10 -2 10 4 0 5 -4 13 -10 16 -5 3
-10 2 -10 -4z"/>
<path d="M4706 329 c2 -4 0 -10 -6 -14 -12 -8 -13 -42 -1 -49 4 -3 6 6 3 19
-3 17 1 27 12 31 20 8 21 21 1 21 -8 0 -12 -4 -9 -8z"/>
<path d="M4747 320 c4 -15 2 -19 -10 -14 -8 3 -18 0 -22 -6 -4 -6 -1 -11 6 -9
30 4 41 -1 35 -16 -3 -8 -1 -15 4 -15 6 0 10 4 10 9 0 5 3 18 6 28 5 15 4 15
-5 3 -9 -12 -11 -10 -11 13 0 15 -4 27 -9 27 -5 0 -7 -9 -4 -20z"/>
<path d="M4816 325 c4 -8 8 -15 10 -15 2 0 4 7 4 15 0 8 -4 15 -10 15 -5 0 -7
-7 -4 -15z"/>
<path d="M4246 322 c-2 -4 7 -8 20 -8 13 -1 24 1 24 5 0 9 -38 12 -44 3z"/>
<path d="M4050 309 c0 -5 5 -7 10 -4 6 3 10 8 10 11 0 2 -4 4 -10 4 -5 0 -10
-5 -10 -11z"/>
<path d="M4331 303 c-7 -8 -19 -12 -26 -9 -9 3 -11 -2 -7 -17 3 -12 7 -16 10
-9 2 8 10 4 22 -10 15 -19 21 -21 32 -10 11 11 10 13 -7 10 -12 -2 -21 4 -23
16 -2 11 0 16 6 12 13 -8 23 6 14 21 -5 7 -11 6 -21 -4z"/>
<path d="M4410 304 c0 -8 5 -12 10 -9 6 4 8 11 5 16 -9 14 -15 11 -15 -7z"/>
<path d="M3645 300 c-4 -6 -10 -8 -15 -5 -5 3 -12 0 -16 -6 -5 -8 -3 -9 6 -4
10 6 12 4 7 -7 -4 -11 2 -17 21 -21 23 -4 24 -3 10 7 -12 9 -14 17 -7 29 11
18 5 24 -6 7z"/>
<path d="M3685 300 c-3 -5 1 -10 10 -10 9 0 13 5 10 10 -3 6 -8 10 -10 10 -2
0 -7 -4 -10 -10z"/>
<path d="M3833 295 c0 -9 11 -18 24 -21 13 -4 23 -12 23 -20 0 -7 11 -16 24
-20 14 -3 27 -13 29 -22 4 -14 5 -14 6 1 1 11 -7 21 -19 24 -11 3 -17 9 -15
14 3 4 -2 12 -11 17 -10 5 -14 14 -9 21 4 8 22 -4 52 -36 42 -44 43 -45 16 -8
-17 22 -28 45 -26 51 5 14 -34 11 -49 -4 -9 -9 -16 -8 -28 3 -15 13 -17 13
-17 0z"/>
<path d="M4605 300 c-4 -6 -10 -8 -15 -5 -5 3 -12 0 -16 -6 -5 -8 -3 -9 6 -4
10 6 12 4 7 -7 -4 -11 2 -17 21 -21 23 -4 24 -3 10 7 -12 9 -14 17 -7 29 11
18 5 24 -6 7z"/>
<path d="M4645 300 c-3 -5 1 -10 10 -10 9 0 13 5 10 10 -3 6 -8 10 -10 10 -2
0 -7 -4 -10 -10z"/>
<path d="M4169 293 c-1 -5 -1 -11 0 -15 1 -8 -14 -12 -37 -9 -8 1 -20 -3 -27
-9 -11 -9 -16 -7 -25 9 -14 27 -33 27 -25 0 5 -15 2 -22 -14 -26 -12 -3 -21
-13 -20 -22 0 -10 2 -11 6 -3 2 6 9 12 14 12 6 0 7 -4 4 -10 -3 -5 -1 -10 4
-10 6 0 11 9 11 19 0 23 16 36 25 21 4 -6 12 -7 18 -3 23 14 37 11 37 -7 0
-10 -5 -20 -11 -22 -7 -2 -6 -8 4 -16 12 -10 15 -10 14 0 -1 35 4 59 12 54 4
-3 13 6 19 19 7 15 8 25 2 25 -6 0 -11 -3 -11 -7z"/>
<path d="M4218 288 c9 -11 10 -18 2 -23 -5 -3 -10 -12 -10 -18 0 -9 3 -8 8 1
5 7 16 10 24 7 9 -4 19 -1 23 5 8 13 3 21 -17 24 -7 1 -20 6 -28 11 -13 7 -13
6 -2 -7z"/>
<path d="M4387 279 c-5 -17 -2 -20 14 -16 17 5 18 3 8 -9 -6 -8 -9 -17 -6 -20
3 -3 10 3 16 14 8 15 6 23 -8 36 -17 16 -19 16 -24 -5z"/>
<path d="M4027 279 c7 -9 10 -19 6 -22 -3 -4 -1 -7 5 -7 17 0 15 16 -5 31 -16
12 -17 12 -6 -2z"/>
<path d="M3682 264 c10 -10 20 -16 22 -13 3 3 -5 11 -17 18 -21 13 -21 12 -5
-5z"/>
<path d="M4642 264 c10 -10 20 -16 22 -13 3 3 -5 11 -17 18 -21 13 -21 12 -5
-5z"/>
<path d="M3830 260 c0 -6 7 -10 15 -10 8 0 15 2 15 4 0 2 -7 6 -15 10 -8 3
-15 1 -15 -4z"/>
<path d="M4790 260 c0 -6 7 -10 15 -10 8 0 15 2 15 4 0 2 -7 6 -15 10 -8 3
-15 1 -15 -4z"/>
<path d="M3720 250 c0 -5 5 -10 11 -10 5 0 7 5 4 10 -3 6 -8 10 -11 10 -2 0
-4 -4 -4 -10z"/>
<path d="M4680 250 c0 -5 5 -10 11 -10 5 0 7 5 4 10 -3 6 -8 10 -11 10 -2 0
-4 -4 -4 -10z"/>
<path d="M3626 243 c13 -9 15 -43 2 -43 -4 0 -8 8 -8 18 0 14 -2 15 -10 2 -14
-22 -12 -27 11 -33 17 -5 19 -9 10 -26 -9 -17 -8 -20 8 -18 16 1 17 5 10 25
-12 31 -11 35 3 26 7 -5 8 -3 2 7 -5 8 -9 20 -9 28 0 8 -7 16 -15 18 -10 3
-11 2 -4 -4z"/>
<path d="M4278 243 c7 -3 16 -2 19 1 4 3 -2 6 -13 5 -11 0 -14 -3 -6 -6z"/>
<path d="M4366 235 c-11 -8 -14 -15 -8 -15 7 0 12 -5 12 -11 0 -7 -10 -9 -27
-4 -31 7 -30 7 9 -18 19 -12 29 -14 34 -5 4 7 3 8 -4 4 -7 -4 -12 -2 -12 3 0
6 5 11 11 11 8 0 8 4 0 13 -8 10 -7 17 1 25 16 16 7 14 -16 -3z"/>
<path d="M4586 243 c13 -9 15 -43 2 -43 -4 0 -8 8 -8 18 0 14 -2 15 -10 2 -14
-22 -12 -27 11 -33 17 -5 19 -9 10 -26 -9 -17 -8 -20 8 -18 16 1 17 5 10 25
-12 31 -11 35 3 26 7 -5 8 -3 2 7 -5 8 -9 20 -9 28 0 8 -7 16 -15 18 -10 3
-11 2 -4 -4z"/>
<path d="M3504 228 c-6 -9 -6 -9 22 -12 11 -1 21 3 21 9 0 12 -36 15 -43 3z"/>
<path d="M3790 230 c-9 -6 -10 -10 -3 -10 6 0 15 5 18 10 8 12 4 12 -15 0z"/>
<path d="M3835 230 c3 -5 8 -10 11 -10 2 0 4 5 4 10 0 6 -5 10 -11 10 -5 0 -7
-4 -4 -10z"/>
<path d="M4750 230 c-9 -6 -10 -10 -3 -10 6 0 15 5 18 10 8 12 4 12 -15 0z"/>
<path d="M4795 230 c3 -5 8 -10 11 -10 2 0 4 5 4 10 0 6 -5 10 -11 10 -5 0 -7
-4 -4 -10z"/>
<path d="M3889 197 c6 -25 11 -31 28 -29 12 2 24 -2 28 -8 6 -9 -13 -13 -67
-13 -9 0 -14 -5 -12 -11 2 -6 -2 -20 -10 -31 -15 -20 -15 -20 -30 0 -8 11 -16
15 -16 9 0 -6 7 -17 15 -24 11 -9 18 -9 33 2 11 7 20 16 21 21 0 4 4 7 9 6 4
-1 6 -5 4 -11 -1 -5 2 -7 7 -4 5 4 12 2 16 -4 3 -5 -1 -10 -9 -10 -9 0 -16 -4
-16 -10 0 -5 7 -7 15 -4 8 4 15 1 15 -5 0 -6 -4 -11 -10 -11 -5 0 -7 -7 -4
-15 8 -20 -6 -19 -23 3 -8 9 -11 11 -8 4 4 -8 -1 -19 -11 -27 -18 -14 -18 -14
1 -15 27 0 67 29 59 42 -5 7 -2 8 5 3 7 -4 10 -16 7 -28 -3 -14 -2 -17 6 -9 6
6 7 20 2 33 -4 13 -7 29 -6 35 1 7 -4 14 -13 18 -23 8 -18 25 10 36 14 5 25
14 25 19 0 12 -37 24 -50 16 -6 -4 -10 5 -10 19 0 14 -4 27 -9 30 -4 3 -5 -9
-2 -27z"/>
<path d="M4849 198 c5 -26 11 -31 41 -33 27 -2 30 -1 16 7 -9 5 -24 7 -32 4
-10 -4 -14 2 -14 19 0 13 -4 26 -9 29 -4 3 -6 -8 -2 -26z"/>
<path d="M3696 208 c5 -8 2 -9 -10 -5 -14 6 -15 3 -6 -13 6 -11 13 -20 16 -20
3 0 3 4 -1 9 -3 6 2 14 11 19 15 8 15 10 0 15 -12 5 -15 3 -10 -5z"/>
<path d="M3752 215 c4 -5 3 -14 -3 -22 -6 -7 -8 -13 -4 -13 5 0 -2 -8 -14 -19
-21 -18 -21 -19 -1 -24 11 -3 17 -1 14 4 -3 6 0 16 6 24 7 8 9 15 4 15 -5 0
-2 4 6 10 9 5 19 5 27 -2 9 -7 13 -7 13 1 0 7 4 10 9 6 5 -3 12 -1 16 4 3 6
-4 8 -16 6 -12 -2 -31 1 -43 7 -11 6 -18 7 -14 3z"/>
<path d="M4100 211 c0 -7 -4 -9 -10 -6 -5 3 -10 1 -10 -4 0 -6 4 -11 9 -11 13
0 25 20 17 27 -3 4 -6 1 -6 -6z"/>
<path d="M4405 199 c2 -12 7 -24 11 -28 4 -3 4 2 1 12 -5 13 -1 17 20 17 31 0
23 13 -12 17 -20 3 -23 0 -20 -18z"/>
<path d="M4656 208 c5 -8 2 -9 -10 -5 -14 6 -15 3 -6 -13 6 -11 13 -20 16 -20
3 0 3 4 -1 9 -3 6 2 14 11 19 15 8 15 10 0 15 -12 5 -15 3 -10 -5z"/>
<path d="M4712 215 c4 -5 3 -14 -3 -22 -6 -7 -8 -13 -4 -13 5 0 -2 -8 -14 -19
-21 -18 -21 -19 -1 -24 11 -3 17 -1 14 4 -3 6 0 16 6 24 7 8 9 15 4 15 -5 0
-2 4 6 10 9 5 19 5 27 -2 9 -7 13 -7 13 1 0 7 4 10 9 6 5 -3 12 -1 16 4 3 6
-4 8 -16 6 -12 -2 -31 1 -43 7 -11 6 -18 7 -14 3z"/>
<path d="M3840 198 c0 -6 -7 -19 -16 -29 -16 -18 -11 -44 7 -33 5 3 7 10 3 15
-8 13 31 50 42 41 4 -4 4 -1 0 6 -9 15 -36 16 -36 0z"/>
<path d="M4233 193 c3 -14 0 -23 -6 -23 -7 0 -5 -5 3 -10 13 -8 13 -10 -1 -10
-24 0 -30 11 -17 29 10 12 7 12 -8 -2 -11 -9 -24 -14 -27 -10 -4 3 -7 -1 -7
-11 0 -14 -4 -15 -22 -6 -20 9 -21 9 -7 -2 9 -7 14 -19 12 -25 -3 -7 0 -13 7
-13 6 0 8 5 5 10 -3 5 1 10 9 10 9 0 15 3 15 8 -4 21 3 23 22 6 17 -15 22 -16
29 -4 5 8 6 18 4 22 -3 4 2 8 10 8 9 0 16 5 16 11 0 5 -4 8 -9 4 -6 -3 -15 3
-21 12 -10 16 -11 16 -7 -4z"/>
<path d="M4800 198 c0 -6 -7 -19 -16 -29 -16 -18 -11 -44 7 -33 5 3 7 10 3 15
-8 13 31 50 42 41 4 -4 4 -1 0 6 -9 15 -36 16 -36 0z"/>
<path d="M3986 170 c-10 -17 -15 -34 -12 -37 3 -4 6 0 6 8 0 12 2 11 11 -1 8
-12 9 -10 4 9 -5 16 -4 21 4 17 6 -4 11 0 11 9 0 13 4 14 21 4 12 -6 25 -7 30
-2 5 5 1 9 -9 9 -9 1 -24 4 -32 8 -11 4 -21 -3 -34 -24z"/>
<path d="M4433 175 c0 -8 4 -15 8 -15 5 0 5 -7 2 -17 -5 -12 -3 -14 8 -8 12 8
12 6 0 -8 -9 -11 -9 -17 -2 -17 6 0 3 -9 -6 -20 -13 -15 -19 -17 -26 -7 -6 8
-7 6 -3 -6 3 -10 6 -21 6 -23 0 -2 5 -4 11 -4 5 0 7 5 3 12 -5 8 -2 9 10 5 10
-4 15 -3 11 4 -4 5 -2 15 3 22 10 12 12 17 12 38 0 6 7 8 16 5 8 -3 12 -2 9 4
-5 9 7 14 27 12 3 -1 8 4 11 12 3 7 -1 13 -9 13 -8 0 -14 -5 -14 -11 0 -6 -5
-3 -11 7 -8 14 -14 16 -25 6 -10 -8 -18 -9 -27 0 -10 8 -14 7 -14 -4z m57 -10
c0 -8 -7 -15 -16 -15 -14 0 -14 3 -4 15 7 8 14 15 16 15 2 0 4 -7 4 -15z"/>
<path d="M3550 169 c0 -15 18 -19 23 -6 3 8 -1 14 -9 14 -8 0 -14 -4 -14 -8z"/>
<path d="M3865 170 c-3 -5 -1 -10 4 -10 6 0 11 5 11 10 0 6 -2 10 -4 10 -3 0
-8 -4 -11 -10z"/>
<path d="M4097 163 c6 -16 5 -17 -12 -3 -17 14 -18 14 -7 -7 9 -17 9 -22 -4
-27 -8 -3 -12 -10 -9 -16 3 -5 -3 -10 -13 -10 -16 0 -19 5 -15 23 3 12 3 20 0
17 -3 -3 -8 -18 -11 -33 -5 -28 8 -45 19 -26 4 5 13 8 21 5 8 -3 24 -1 36 4
13 5 18 9 13 9 -6 1 -12 13 -13 27 -2 24 0 25 15 13 14 -12 14 -10 -1 14 -21
31 -28 35 -19 10z m-3 -58 c-4 -8 -8 -15 -10 -15 -2 0 -4 7 -4 15 0 8 4 15 10
15 5 0 7 -7 4 -15z"/>
<path d="M4280 176 c0 -2 7 -9 15 -16 9 -7 15 -8 15 -2 0 5 -7 12 -15 16 -8 3
-15 4 -15 2z"/>
<path d="M4335 172 c-18 -13 -16 -41 5 -52 11 -6 20 -7 20 -1 0 5 -8 12 -17
15 -10 4 -13 10 -8 14 6 4 11 13 13 20 2 14 1 14 -13 4z"/>
<path d="M4825 170 c-3 -5 -1 -10 4 -10 6 0 11 5 11 10 0 6 -2 10 -4 10 -3 0
-8 -4 -11 -10z"/>
<path d="M3667 150 c6 -21 18 -26 28 -11 3 6 -3 15 -14 20 -16 9 -18 8 -14 -9z"/>
<path d="M3779 153 c-8 -9 -9 -14 -2 -10 6 4 14 1 16 -5 3 -7 6 -3 6 10 1 26
-2 27 -20 5z"/>
<path d="M4627 150 c6 -21 18 -26 28 -11 3 6 -3 15 -14 20 -16 9 -18 8 -14 -9z"/>
<path d="M4739 153 c-8 -9 -9 -14 -2 -10 6 4 14 1 16 -5 3 -7 6 -3 6 10 1 26
-2 27 -20 5z"/>
<path d="M4255 140 c-3 -6 1 -7 9 -4 18 7 21 14 7 14 -6 0 -13 -4 -16 -10z"/>
<path d="M4403 130 c-1 -11 2 -20 5 -20 4 0 8 9 9 20 1 11 -2 20 -5 20 -4 0
-8 -9 -9 -20z"/>
<path d="M3580 132 c0 -7 4 -12 9 -12 6 0 8 -9 6 -20 -6 -30 -15 -41 -27 -34
-7 4 -8 2 -4 -4 12 -20 23 -14 36 19 11 26 11 33 -4 47 -10 10 -16 12 -16 4z"/>
<path d="M4540 132 c0 -7 4 -12 9 -12 5 0 8 -12 6 -27 -4 -27 -4 -27 7 -5 9
19 8 26 -5 40 -11 10 -17 12 -17 4z"/>
<path d="M3717 114 c5 -13 2 -15 -15 -9 -35 10 -24 -25 11 -38 10 -4 16 -11
12 -16 -3 -5 0 -13 7 -17 7 -4 10 -4 6 1 -4 4 -3 14 3 22 9 10 7 13 -7 13 -16
0 -17 2 -4 10 11 7 11 10 2 10 -7 0 -10 5 -7 10 4 6 11 8 16 5 5 -4 9 -4 9 -1
0 3 -9 10 -20 16 -16 9 -19 8 -13 -6z m-2 -32 c-3 -3 -11 0 -18 7 -9 10 -8 11
6 5 10 -3 15 -9 12 -12z"/>
<path d="M3765 120 c-3 -5 -1 -10 4 -10 6 0 11 5 11 10 0 6 -2 10 -4 10 -3 0
-8 -4 -11 -10z"/>
<path d="M3950 123 c0 -2 9 -14 21 -26 11 -12 20 -17 19 -12 -5 22 1 29 10 15
8 -13 10 -13 10 1 0 11 -11 18 -30 21 -16 3 -30 3 -30 1z"/>
<path d="M4676 117 c3 -8 11 -14 19 -14 20 0 19 4 -5 17 -15 8 -18 8 -14 -3z"/>
<path d="M4725 120 c-3 -5 -1 -10 4 -10 6 0 11 5 11 10 0 6 -2 10 -4 10 -3 0
-8 -4 -11 -10z"/>
<path d="M3645 110 c-3 -5 -1 -10 4 -10 6 0 11 5 11 10 0 6 -2 10 -4 10 -3 0
-8 -4 -11 -10z"/>
<path d="M4270 116 c0 -2 6 -9 13 -15 10 -8 14 -7 14 4 0 8 -6 15 -14 15 -7 0
-13 -2 -13 -4z"/>
<path d="M4480 108 c0 -4 9 -8 20 -8 11 0 20 4 20 8 0 4 -9 8 -20 8 -11 0 -20
-4 -20 -8z"/>
<path d="M4605 110 c-3 -5 -1 -10 4 -10 6 0 11 5 11 10 0 6 -2 10 -4 10 -3 0
-8 -4 -11 -10z"/>
<path d="M3771 96 c-20 -11 -21 -14 -6 -20 9 -3 15 -12 12 -19 -3 -8 1 -14 9
-14 8 0 14 4 14 9 0 4 0 11 0 16 0 4 -4 7 -9 7 -5 0 -13 3 -17 8 -4 4 0 7 9 7
10 0 17 5 17 10 0 12 0 12 -29 -4z"/>
<path d="M4193 100 c2 -8 12 -16 23 -17 13 -2 15 -1 4 4 -8 3 -19 11 -23 17
-6 7 -7 6 -4 -4z"/>
<path d="M4640 102 c0 -5 7 -9 15 -9 8 0 12 4 9 9 -7 10 -24 10 -24 0z"/>
<path d="M3621 94 c-1 -6 7 -18 16 -25 9 -8 14 -9 10 -2 -4 6 -4 13 0 16 5 2
3 2 -4 1 -6 -2 -14 2 -17 9 -3 8 -5 8 -5 1z"/>
<path d="M3953 82 c1 -13 10 -22 25 -25 18 -4 21 -2 10 7 -7 6 -18 17 -25 25
-10 11 -12 10 -10 -7z"/>
<path d="M4354 88 c-3 -4 -2 -8 3 -8 4 0 1 -4 -7 -10 -9 -6 -20 -5 -30 3 -13
10 -13 10 -1 -5 14 -19 36 -13 59 15 9 11 8 14 -4 14 -8 0 -17 -4 -20 -9z"/>
<path d="M3516 82 c-2 -4 -1 -14 4 -22 7 -11 12 -12 21 -3 6 6 8 16 5 22 -8
13 -23 14 -30 3z"/>
<path d="M4475 80 c-3 -6 1 -13 10 -16 19 -8 30 0 20 15 -8 14 -22 14 -30 1z"/>
<path d="M3607 57 c-3 -9 -3 -16 1 -16 4 1 9 0 12 -1 22 -8 39 -6 44 6 4 11 2
13 -11 5 -12 -6 -20 -5 -28 6 -11 14 -12 14 -18 0z"/>
<path d="M3833 55 c0 -8 4 -12 9 -9 5 3 6 10 3 15 -9 13 -12 11 -12 -6z"/>
<path d="M4040 60 c-9 -6 -10 -10 -3 -10 6 0 15 5 18 10 8 12 4 12 -15 0z"/>
<path d="M4090 61 c0 -5 5 -13 10 -16 6 -3 10 -2 10 4 0 5 -4 13 -10 16 -5 3
-10 2 -10 -4z"/>
<path d="M4176 53 c5 -19 -8 -24 -21 -7 -11 15 -12 15 -12 1 0 -19 24 -31 32
-16 4 5 10 7 14 5 4 -3 8 1 8 9 0 8 -4 12 -8 9 -4 -2 -9 -1 -12 3 -2 5 -3 3
-1 -4z"/>
<path d="M4294 62 c6 -11 -13 -17 -37 -13 -5 1 -6 -3 -3 -7 7 -11 56 -3 56 9
0 4 -5 11 -12 15 -7 4 -8 3 -4 -4z"/>
<path d="M4014 38 c3 -12 0 -18 -9 -18 -8 0 -15 4 -15 8 0 5 -6 9 -13 9 -8 0
-14 -5 -14 -11 0 -7 21 -12 54 -12 34 0 53 4 53 11 0 6 -7 12 -15 12 -8 0 -12
-4 -9 -9 10 -15 -9 -8 -23 10 -14 16 -14 16 -9 0z"/>
<path d="M3536 31 c-4 -5 3 -7 14 -4 23 6 26 13 6 13 -8 0 -17 -4 -20 -9z"/>
<path d="M3670 31 c0 -10 24 -21 46 -21 9 0 12 5 9 10 -4 6 -10 8 -15 5 -5 -3
-11 -1 -15 5 -8 12 -25 13 -25 1z"/>
<path d="M4115 29 c-4 -6 -5 -12 -2 -15 2 -3 7 2 10 11 7 17 1 20 -8 4z"/>
</g>
</svg>
